<?xml version="1.0" encoding="iso-8859-1"?>
<!-- Generator: Adobe Illustrator 19.0.0, SVG Export Plug-In . SVG Version: 6.00 Build 0)  -->
<svg xmlns="http://www.w3.org/2000/svg" xmlns:xlink="http://www.w3.org/1999/xlink" version="1.1" id="Layer_1" x="0px" y="0px" viewBox="0 0 512 512" style="enable-background:new 0 0 512 512;" xml:space="preserve">
<g>
	<g>
		<path d="M392.385,67.323C348.972,23.909,291.25,0,229.854,0C168.457,0,110.737,23.909,67.323,67.323    C23.909,110.736,0,168.457,0,229.854c0,61.396,23.909,119.118,67.323,162.531c43.413,43.412,101.135,67.322,162.531,67.322    s119.118-23.909,162.531-67.322c43.412-43.413,67.322-101.135,67.322-162.531C459.707,168.457,435.799,110.736,392.385,67.323z     M229.854,418.344c-103.933,0-188.49-84.556-188.49-188.49s84.556-188.49,188.49-188.49s188.489,84.556,188.49,188.49    C418.344,333.788,333.787,418.344,229.854,418.344z"/>
	</g>
</g>
<g>
	<g>
		<path d="M505.943,476.693L392.206,362.957c-8.077-8.077-21.172-8.077-29.249,0c-8.076,8.077-8.076,21.172,0,29.249    l113.737,113.737c4.038,4.039,9.332,6.058,14.625,6.058c5.293,0,10.587-2.019,14.625-6.058    C514.019,497.865,514.019,484.77,505.943,476.693z"/>
	</g>
</g>
<g>
	<g>
		<path d="M308.293,209.172H151.414c-11.422,0-20.682,9.26-20.682,20.682s9.26,20.682,20.682,20.682h156.879    c11.423,0,20.682-9.26,20.682-20.682S319.716,209.172,308.293,209.172z"/>
	</g>
</g>
<g>
</g>
<g>
</g>
<g>
</g>
<g>
</g>
<g>
</g>
<g>
</g>
<g>
</g>
<g>
</g>
<g>
</g>
<g>
</g>
<g>
</g>
<g>
</g>
<g>
</g>
<g>
</g>
<g>
</g>
</svg>
