<?xml version="1.0" encoding="iso-8859-1"?>
<!-- Generator: Adobe Illustrator 19.0.0, SVG Export Plug-In . SVG Version: 6.00 Build 0)  -->
<svg xmlns="http://www.w3.org/2000/svg" xmlns:xlink="http://www.w3.org/1999/xlink" version="1.1" id="Layer_1" x="0px" y="0px" viewBox="0 0 512 512" style="enable-background:new 0 0 512 512;" xml:space="preserve">
<g>
	<g>
		<path d="M486.515,200.165c-3.404-7.268-10.705-11.91-18.73-11.91H279.428L300.053,23.25c1.139-9.11-3.864-17.881-12.287-21.537    c-8.424-3.658-18.246-1.322-24.124,5.731L28.326,289.824c-5.137,6.165-6.245,14.746-2.841,22.013    c3.404,7.266,10.705,11.909,18.73,11.909h188.356l-20.625,165.006c-1.138,9.11,3.865,17.881,12.287,21.538    c2.659,1.155,5.458,1.711,8.229,1.711c6.003,0,11.873-2.616,15.896-7.442l235.317-282.38    C488.811,216.013,489.919,207.433,486.515,200.165z M261.74,423.884l14.782-118.254c0.736-5.888-1.091-11.806-5.017-16.253    c-3.926-4.447-9.573-6.994-15.505-6.994H88.372L250.259,88.118l-14.782,118.255c-0.736,5.887,1.091,11.805,5.017,16.252    c3.926,4.447,9.573,6.994,15.505,6.994h167.628L261.74,423.884z"/>
	</g>
</g>
<g>
</g>
<g>
</g>
<g>
</g>
<g>
</g>
<g>
</g>
<g>
</g>
<g>
</g>
<g>
</g>
<g>
</g>
<g>
</g>
<g>
</g>
<g>
</g>
<g>
</g>
<g>
</g>
<g>
</g>
</svg>
