<?xml version="1.0" encoding="iso-8859-1"?>
<!-- Generator: Adobe Illustrator 19.0.0, SVG Export Plug-In . SVG Version: 6.00 Build 0)  -->
<svg xmlns="http://www.w3.org/2000/svg" xmlns:xlink="http://www.w3.org/1999/xlink" version="1.1" id="Layer_1" x="0px" y="0px" viewBox="0 0 512 512" style="enable-background:new 0 0 512 512;" xml:space="preserve">
<g>
	<g>
		<path d="M256,85.57c-93.975,0-170.43,76.454-170.43,170.43s76.454,170.43,170.43,170.43c93.976,0,170.43-76.454,170.43-170.43    S349.975,85.57,256,85.57z M256,385.065c-71.167,0-129.065-57.898-129.065-129.065S184.834,126.934,256,126.934    c71.167,0,129.065,57.899,129.065,129.065C385.065,327.167,327.167,385.065,256,385.065z"/>
	</g>
</g>
<g>
	<g>
		<path d="M302.713,273.464l-26.031-26.031v-55.61c0-11.422-9.259-20.682-20.682-20.682c-11.422,0-20.682,9.26-20.682,20.682V256    c0,5.486,2.179,10.746,6.058,14.625l32.089,32.089c4.038,4.039,9.332,6.058,14.625,6.058s10.587-2.019,14.625-6.058    C310.789,294.636,310.789,281.541,302.713,273.464z"/>
	</g>
</g>
<g>
	<g>
		<path d="M354.362,349.853c-11.359-1.05-21.44,7.338-22.478,18.713l-7.49,81.955c-1.037,11.482-10.491,20.113-22.092,20.113    c-0.032,0-0.063,0-0.095,0h-92.712c-11.601,0.051-21.063-8.6-22.105-20.134l-7.487-81.934    c-1.04-11.375-11.107-19.767-22.478-18.713c-11.375,1.04-19.754,11.103-18.714,22.478l7.485,81.912    c1.434,15.866,8.712,30.508,20.494,41.23C178.408,506.136,193.566,512,209.321,512c0.086,0,0.173-0.001,0.257-0.001h92.546    c0.086,0,0.172,0,0.259,0c15.836,0,30.997-5.864,42.713-16.526c11.781-10.722,19.06-25.364,20.491-41.208l7.488-81.934    C374.115,360.957,365.737,350.893,354.362,349.853z"/>
	</g>
</g>
<g>
	<g>
		<path d="M373.504,139.667l-7.486-81.912c-1.433-15.866-8.712-30.508-20.494-41.229C333.806,5.863,318.647,0,302.893,0    c-0.086,0-0.172,0-0.258,0h-93.076c-15.871,0.016-31.061,5.922-42.773,16.632c-11.712,10.711-18.949,25.315-20.375,41.102    l-7.488,81.933c-1.04,11.375,7.339,21.44,18.714,22.479c11.38,1.041,21.44-7.339,22.479-18.714l7.489-81.954    c1.036-11.456,10.49-20.102,21.973-20.113h93.142c0.032,0,0.063,0,0.094,0c11.517,0,20.972,8.632,22.011,20.135l7.488,81.933    c0.981,10.736,9.998,18.802,20.572,18.802c0.63,0,1.267-0.029,1.906-0.087C366.166,161.107,374.544,151.042,373.504,139.667z"/>
	</g>
</g>
<g>
</g>
<g>
</g>
<g>
</g>
<g>
</g>
<g>
</g>
<g>
</g>
<g>
</g>
<g>
</g>
<g>
</g>
<g>
</g>
<g>
</g>
<g>
</g>
<g>
</g>
<g>
</g>
<g>
</g>
</svg>
