<?xml version="1.0" encoding="iso-8859-1"?>
<!-- Generator: Adobe Illustrator 19.0.0, SVG Export Plug-In . SVG Version: 6.00 Build 0)  -->
<svg xmlns="http://www.w3.org/2000/svg" xmlns:xlink="http://www.w3.org/1999/xlink" version="1.1" id="Layer_1" x="0px" y="0px" viewBox="0 0 512 512" style="enable-background:new 0 0 512 512;" xml:space="preserve">
<g>
	<g>
		<path d="M500.782,130.647c-6.888-3.545-15.181-2.944-21.486,1.56L329.549,239.17c-5.435,3.883-8.661,10.15-8.661,16.83    c0,6.68,3.226,12.948,8.661,16.83l149.748,106.962c3.576,2.554,7.789,3.852,12.023,3.852c3.234,0,6.479-0.757,9.462-2.292    c6.889-3.545,11.218-10.643,11.218-18.39V149.037C512,141.29,507.671,134.192,500.782,130.647z M470.636,322.773L377.154,256    l93.482-66.773V322.773z"/>
	</g>
</g>
<g>
	<g>
		<path d="M298.785,85.57H63.467C28.472,85.57,0,114.041,0,149.037v213.925c0,34.997,28.472,63.468,63.468,63.468h235.318    c34.995,0,63.467-28.471,63.466-63.468V149.037C362.251,114.042,333.78,85.57,298.785,85.57z M320.887,362.962    c0,12.188-9.915,22.103-22.102,22.103H63.467c-12.187,0-22.102-9.916-22.102-22.103V149.037c0-12.188,9.916-22.102,22.102-22.102    h235.318c12.188,0,22.102,9.915,22.102,22.102V362.962z"/>
	</g>
</g>
<g>
</g>
<g>
</g>
<g>
</g>
<g>
</g>
<g>
</g>
<g>
</g>
<g>
</g>
<g>
</g>
<g>
</g>
<g>
</g>
<g>
</g>
<g>
</g>
<g>
</g>
<g>
</g>
<g>
</g>
</svg>
