<?xml version="1.0" encoding="iso-8859-1"?>
<!-- Generator: Adobe Illustrator 19.0.0, SVG Export Plug-In . SVG Version: 6.00 Build 0)  -->
<svg xmlns="http://www.w3.org/2000/svg" xmlns:xlink="http://www.w3.org/1999/xlink" version="1.1" id="Layer_1" x="0px" y="0px" viewBox="0 0 512.001 512.001" style="enable-background:new 0 0 512.001 512.001;" xml:space="preserve">
<g>
	<g>
		<path d="M341.569,320.888c-11.423,0-20.682,9.259-20.682,20.682v21.392c0,12.188-9.915,22.103-22.102,22.103H63.467    c-12.187,0-22.102-9.916-22.102-22.103V149.037c0-12.188,9.916-22.102,22.102-22.102h42.785c11.422,0,20.682-9.26,20.682-20.682    c0-11.422-9.26-20.682-20.682-20.682H63.467C28.472,85.57,0,114.041,0,149.037v213.925c0,34.997,28.472,63.468,63.468,63.468    h235.318c34.995,0,63.467-28.471,63.466-63.468V341.57C362.252,330.147,352.992,320.888,341.569,320.888z"/>
	</g>
</g>
<g>
	<g>
		<path d="M500.728,130.619c-6.919-3.534-15.234-2.895-21.531,1.661l-114.074,82.513l-2.871-2.872v-62.884    c0-34.995-28.472-63.467-63.467-63.467h-71.451c-11.422,0-20.682,9.26-20.682,20.682c0,11.422,9.26,20.682,20.682,20.682h71.451    c12.188,0,22.102,9.915,22.102,22.102v71.451c0,5.486,2.179,10.746,6.058,14.625l21.392,21.393    c7.183,7.183,18.518,8.086,26.746,2.133l95.552-69.116v173.439c0,11.423,9.259,20.682,20.682,20.682    c11.423,0,20.682-9.259,20.683-20.682V149.037C512.001,141.268,507.646,134.153,500.728,130.619z"/>
	</g>
</g>
<g>
	<g>
		<path d="M505.942,476.694L35.306,6.059c-8.076-8.077-21.172-8.077-29.248,0c-8.077,8.076-8.077,21.171,0,29.248l470.636,470.636    c4.038,4.039,9.332,6.058,14.625,6.058c5.293,0,10.587-2.019,14.624-6.057C514.018,497.866,514.018,484.771,505.942,476.694z"/>
	</g>
</g>
<g>
</g>
<g>
</g>
<g>
</g>
<g>
</g>
<g>
</g>
<g>
</g>
<g>
</g>
<g>
</g>
<g>
</g>
<g>
</g>
<g>
</g>
<g>
</g>
<g>
</g>
<g>
</g>
<g>
</g>
</svg>
