<?xml version="1.0" encoding="iso-8859-1"?>
<!-- Generator: Adobe Illustrator 19.0.0, SVG Export Plug-In . SVG Version: 6.00 Build 0)  -->
<svg xmlns="http://www.w3.org/2000/svg" xmlns:xlink="http://www.w3.org/1999/xlink" version="1.1" id="Layer_1" x="0px" y="0px" viewBox="0 0 512 512" style="enable-background:new 0 0 512 512;" xml:space="preserve">
<g>
	<g>
		<path d="M359.656,333.912c-39.314-21.896-91.322-33.954-146.44-33.954c-55.12,0-107.126,12.059-146.44,33.954    C23.715,357.893,0,391.167,0,427.604v21.392c0,11.422,9.26,20.681,20.682,20.681c11.422,0,20.682-9.259,20.682-20.682v-21.392    c0-20.46,16.597-41.437,45.536-57.553c33.263-18.525,78.121-28.727,126.314-28.727c48.193,0,93.052,10.202,126.315,28.727    c28.939,16.116,45.536,37.094,45.536,57.554v21.392c0,11.423,9.259,20.682,20.682,20.682c11.423,0,20.682-9.26,20.683-20.682    v-21.392C426.431,391.167,402.716,357.893,359.656,333.912z"/>
	</g>
</g>
<g>
	<g>
		<path d="M319.244,132.989c-3.369-22.716-13.733-43.307-29.972-59.545c-16.239-16.24-36.829-26.603-59.546-29.972    c-10.341-1.533-20.828-1.533-31.17,0c-57.954,8.595-98.112,62.735-89.518,120.689c4.163,28.074,19.01,52.846,41.805,69.754    c18.505,13.727,40.449,20.934,63.073,20.934c5.244,0,10.527-0.388,15.81-1.171C287.68,245.083,327.838,190.942,319.244,132.989z     M223.658,212.761c-17.144,2.543-34.253-1.744-48.174-12.069c-13.921-10.326-22.987-25.454-25.529-42.599    c-5.249-35.392,19.276-68.456,54.667-73.704c3.158-0.468,6.338-0.702,9.518-0.702s6.361,0.234,9.518,0.702    c28.475,4.223,50.445,26.192,54.668,54.668C283.574,174.449,259.049,207.513,223.658,212.761z"/>
	</g>
</g>
<g>
	<g>
		<path d="M427.14,150.21c-11.423,0-20.682,9.26-20.682,20.682v128.355c0,11.423,9.259,20.682,20.682,20.682    c11.422,0,20.682-9.259,20.682-20.682V170.893C447.823,159.471,438.563,150.21,427.14,150.21z"/>
	</g>
</g>
<g>
	<g>
		<path d="M491.318,214.389H362.962c-11.423,0-20.682,9.26-20.682,20.682c0,11.422,9.259,20.682,20.682,20.682h128.356    c11.423,0,20.682-9.26,20.682-20.682C512,223.649,502.741,214.389,491.318,214.389z"/>
	</g>
</g>
<g>
</g>
<g>
</g>
<g>
</g>
<g>
</g>
<g>
</g>
<g>
</g>
<g>
</g>
<g>
</g>
<g>
</g>
<g>
</g>
<g>
</g>
<g>
</g>
<g>
</g>
<g>
</g>
<g>
</g>
</svg>
