<?xml version="1.0" encoding="iso-8859-1"?>
<!-- Generator: Adobe Illustrator 19.0.0, SVG Export Plug-In . SVG Version: 6.00 Build 0)  -->
<svg xmlns="http://www.w3.org/2000/svg" xmlns:xlink="http://www.w3.org/1999/xlink" version="1.1" id="Layer_1" x="0px" y="0px" viewBox="0 0 512 512" style="enable-background:new 0 0 512 512;" xml:space="preserve">
<g>
	<g>
		<path d="M467.786,352.977c-11.423,0-20.682,9.259-20.682,20.682v70.595c0,14.547-11.835,26.381-26.381,26.381H91.278    c-14.547,0-26.381-11.835-26.381-26.381v-70.595c0-11.423-9.26-20.682-20.682-20.682c-11.422,0-20.682,9.259-20.682,20.682v70.595    c0,37.355,30.391,67.746,67.746,67.746h329.445c37.356,0,67.746-30.391,67.746-67.746v-70.595    C488.468,362.236,479.209,352.977,467.786,352.977z"/>
	</g>
</g>
<g>
	<g>
		<path d="M364.753,100.186L270.626,6.059c-8.077-8.076-21.172-8.077-29.249,0l-94.127,94.127c-8.077,8.076-8.077,21.171,0,29.248    c8.076,8.077,21.172,8.077,29.248,0L256,49.932l79.503,79.502c4.038,4.038,9.332,6.058,14.625,6.058    c5.293,0,10.586-2.02,14.626-6.057C372.829,121.358,372.829,108.263,364.753,100.186z"/>
	</g>
</g>
<g>
	<g>
		<path d="M256,0c-11.423,0-20.682,9.26-20.682,20.682v329.445c0,11.423,9.26,20.682,20.682,20.682    c11.423,0,20.682-9.259,20.682-20.682V20.682C276.682,9.26,267.423,0,256,0z"/>
	</g>
</g>
<g>
</g>
<g>
</g>
<g>
</g>
<g>
</g>
<g>
</g>
<g>
</g>
<g>
</g>
<g>
</g>
<g>
</g>
<g>
</g>
<g>
</g>
<g>
</g>
<g>
</g>
<g>
</g>
<g>
</g>
</svg>
