<?xml version="1.0" encoding="iso-8859-1"?>
<!-- Generator: Adobe Illustrator 19.0.0, SVG Export Plug-In . SVG Version: 6.00 Build 0)  -->
<svg xmlns="http://www.w3.org/2000/svg" xmlns:xlink="http://www.w3.org/1999/xlink" version="1.1" id="Layer_1" x="0px" y="0px" viewBox="0 0 512 512" style="enable-background:new 0 0 512 512;" xml:space="preserve">
<g>
	<g>
		<path d="M420.682,211.85H91.319c-37.349,0-67.735,30.386-67.735,67.735v164.68c0,37.349,30.386,67.735,67.735,67.735h329.363    c37.348,0,67.733-30.385,67.733-67.735v-164.68C488.415,242.236,458.03,211.85,420.682,211.85z M447.051,444.266    c0,14.541-11.83,26.37-26.369,26.37H91.319c-14.541,0-26.37-11.83-26.37-26.37v-164.68c0-14.541,11.83-26.37,26.37-26.37v-0.001    h329.362c14.54,0,26.369,11.83,26.369,26.37V444.266z"/>
	</g>
</g>
<g>
	<g>
		<path d="M391.545,110.788c-6.336-31.201-23.407-59.475-48.068-79.611C318.85,11.069,287.789,0,255.999,0c-0.044,0-0.093,0-0.137,0    c-36.945,0.038-71.663,14.459-97.761,40.609c-26.097,26.15-40.45,60.898-40.412,97.82v94.104c0,11.422,9.26,20.682,20.682,20.682    c11.423,0,20.682-9.26,20.682-20.682v-94.124c-0.026-25.895,10.034-50.251,28.326-68.58s42.628-28.439,68.523-28.464    c0.034,0,0.063,0,0.097,0c45.919,0,85.869,32.646,95.009,77.655c2.272,11.193,13.186,18.431,24.384,16.152    C386.586,132.899,393.819,121.982,391.545,110.788z"/>
	</g>
</g>
<g>
</g>
<g>
</g>
<g>
</g>
<g>
</g>
<g>
</g>
<g>
</g>
<g>
</g>
<g>
</g>
<g>
</g>
<g>
</g>
<g>
</g>
<g>
</g>
<g>
</g>
<g>
</g>
<g>
</g>
</svg>
