<?xml version="1.0" encoding="iso-8859-1"?>
<!-- Generator: Adobe Illustrator 19.0.0, SVG Export Plug-In . SVG Version: 6.00 Build 0)  -->
<svg xmlns="http://www.w3.org/2000/svg" xmlns:xlink="http://www.w3.org/1999/xlink" version="1.1" id="Layer_1" x="0px" y="0px" viewBox="0 0 512 512" style="enable-background:new 0 0 512 512;" xml:space="preserve">
<g>
	<g>
		<path d="M511.906,254.048c-6.525-68.355-39.278-130.078-92.226-173.799c-52.947-43.72-119.746-64.206-188.108-57.68    c-59.326,5.663-115.206,31.99-157.348,74.131S5.757,194.72,0.094,254.047c-0.553,5.801,1.365,11.566,5.285,15.878    c3.919,4.312,9.476,6.77,15.303,6.77h470.636c5.827,0,11.384-2.458,15.303-6.769C510.541,265.614,512.46,259.849,511.906,254.048z     M44.65,235.33C63.4,143.439,140.44,72.82,235.503,63.746c57.358-5.471,113.411,11.713,157.839,48.399    c38.497,31.788,64.272,74.92,74.03,123.185H44.65z"/>
	</g>
</g>
<g>
	<g>
		<path d="M384.355,385.078c-11.423,0-20.682,9.259-20.682,20.682c0,23.983-19.512,43.495-43.495,43.495    c-23.983,0-43.495-19.511-43.495-43.495V256.012c0-11.422-9.259-20.682-20.682-20.682c-11.422,0-20.682,9.26-20.682,20.682    v149.749c0,46.791,38.068,84.86,84.86,84.86c46.792,0,84.861-38.068,84.86-84.861    C405.037,394.337,395.778,385.078,384.355,385.078z"/>
	</g>
</g>
<g>
</g>
<g>
</g>
<g>
</g>
<g>
</g>
<g>
</g>
<g>
</g>
<g>
</g>
<g>
</g>
<g>
</g>
<g>
</g>
<g>
</g>
<g>
</g>
<g>
</g>
<g>
</g>
<g>
</g>
</svg>
