<?xml version="1.0" encoding="iso-8859-1"?>
<!-- Generator: Adobe Illustrator 19.0.0, SVG Export Plug-In . SVG Version: 6.00 Build 0)  -->
<svg xmlns="http://www.w3.org/2000/svg" xmlns:xlink="http://www.w3.org/1999/xlink" version="1.1" id="Layer_1" x="0px" y="0px" viewBox="0 0 512 512" style="enable-background:new 0 0 512 512;" xml:space="preserve">
<g>
	<g>
		<path d="M502.954,47.189c-7.126-4.852-16.515-4.774-23.559,0.196c-15.351,10.828-31.974,19.528-49.557,25.948    c-19.253-17.414-43.615-27.826-69.915-29.656c-31.056-2.16-61.081,7.9-84.561,28.326c-25.59,22.259-40.174,54.444-40.046,88.349    c-85.248-7.609-139.14-61.55-177.09-108.986c-4.598-5.746-11.901-8.619-19.182-7.538c-7.279,1.078-13.438,5.944-16.171,12.777    c-0.948,2.369-23.141,58.799-17.453,127.057c4.761,57.133,30.23,131.964,120.039,181.717    c-32.436,14.756-68.282,21.939-103.953,20.519c-9.576-0.378-18.15,5.859-20.736,15.08c-2.587,9.221,1.497,19.013,9.869,23.665    c51.359,28.532,108.03,43.736,163.889,43.965c0.432,0.002,0.861,0.003,1.294,0.003c54.105-0.001,106.379-13.938,151.246-40.336    c42.898-25.241,78.416-61.759,102.715-105.603c26.162-47.206,39.427-101.75,39.427-162.186c-0.011-3.544-0.186-7.098-0.52-10.638    c20.7-22.885,35.388-50.567,42.719-80.667C513.451,60.803,510.081,52.04,502.954,47.189z M432.297,128.07    c-4.916,4.847-7.088,11.827-5.793,18.607c0.877,4.588,1.329,9.278,1.344,13.874c0,101.956-44.378,186.544-121.756,232.072    c-60.586,35.649-133.037,43.933-203.609,25.057c0.729-0.201,1.459-0.407,2.185-0.615c27.596-7.885,53.63-20.055,77.377-36.174    c6.329-4.296,9.77-11.734,8.946-19.34c-0.825-7.605-5.778-14.134-12.881-16.975C97.757,312.434,53.563,257.594,46.757,181.575    c-2.536-28.334,0.707-54.721,4.766-74.501c16.638,17.909,37.384,37.227,62.129,53.407c42.771,27.966,90.663,42.146,142.346,42.146    c11.423,0,20.682-9.26,20.682-20.682v-21.393c0-0.045,0-0.091,0-0.137c-0.146-21.948,9.268-42.797,25.829-57.202    c15.146-13.175,34.51-19.665,54.543-18.27c20.026,1.393,38.311,10.502,51.487,25.648c5.339,6.138,13.783,8.577,21.567,6.229    c5.725-1.724,11.375-3.645,16.941-5.757C442.599,117.081,437.672,122.769,432.297,128.07z"/>
	</g>
</g>
<g>
</g>
<g>
</g>
<g>
</g>
<g>
</g>
<g>
</g>
<g>
</g>
<g>
</g>
<g>
</g>
<g>
</g>
<g>
</g>
<g>
</g>
<g>
</g>
<g>
</g>
<g>
</g>
<g>
</g>
</svg>
