<?xml version="1.0" encoding="iso-8859-1"?>
<!-- Generator: Adobe Illustrator 19.0.0, SVG Export Plug-In . SVG Version: 6.00 Build 0)  -->
<svg xmlns="http://www.w3.org/2000/svg" xmlns:xlink="http://www.w3.org/1999/xlink" version="1.1" id="Layer_1" x="0px" y="0px" viewBox="0 0 512 512" style="enable-background:new 0 0 512 512;" xml:space="preserve">
<g>
	<g>
		<path d="M341.57,85.57H170.43C76.454,85.57,0,162.025,0,256s76.454,170.43,170.43,170.43h171.14    C435.546,426.43,512,349.975,512,256S435.546,85.57,341.57,85.57z M341.57,385.065H170.43    c-71.167,0-129.065-57.898-129.065-129.065S99.263,126.935,170.43,126.935h171.14c71.167,0,129.065,57.898,129.065,129.065    S412.737,385.065,341.57,385.065z"/>
	</g>
</g>
<g>
	<g>
		<path d="M170.43,171.14c-46.791,0-84.86,38.068-84.86,84.86s38.068,84.86,84.86,84.86c46.792,0,84.86-38.068,84.86-84.86    S217.221,171.14,170.43,171.14z M170.43,299.495c-23.983,0-43.495-19.511-43.495-43.495c0-23.983,19.512-43.495,43.495-43.495    s43.495,19.512,43.495,43.495S194.413,299.495,170.43,299.495z"/>
	</g>
</g>
<g>
</g>
<g>
</g>
<g>
</g>
<g>
</g>
<g>
</g>
<g>
</g>
<g>
</g>
<g>
</g>
<g>
</g>
<g>
</g>
<g>
</g>
<g>
</g>
<g>
</g>
<g>
</g>
<g>
</g>
</svg>
