<?xml version="1.0" encoding="iso-8859-1"?>
<!-- Generator: Adobe Illustrator 19.0.0, SVG Export Plug-In . SVG Version: 6.00 Build 0)  -->
<svg xmlns="http://www.w3.org/2000/svg" xmlns:xlink="http://www.w3.org/1999/xlink" version="1.1" id="Layer_1" x="0px" y="0px" viewBox="0 0 512 512" style="enable-background:new 0 0 512 512;" xml:space="preserve">
<g>
	<g>
		<path d="M369.93,0.009H104.6c-16.285-0.15-32.094,5.57-44.51,16.126C47.642,26.715,39.437,41.44,36.992,57.56L4.513,269.374    c-2.716,17.89,1.698,35.766,12.429,50.338c10.73,14.569,26.493,24.09,44.382,26.805c3.565,0.541,7.202,0.8,10.803,0.765h112.402    v73.442c0,50.33,40.946,91.277,91.276,91.277c8.174,0,15.581-4.813,18.9-12.282l94.126-211.782c1.175-2.644,1.782-5.506,1.782-8.4    V20.691C390.613,9.269,381.353,0.009,369.93,0.009z M349.249,275.146l-86.156,193.849c-21.384-5.636-37.199-25.141-37.199-48.272    v-94.124c0-11.423-9.26-20.682-20.682-20.682H72.024c-0.078,0-0.156,0-0.234,0c-1.423,0.028-2.852-0.085-4.258-0.297    c-6.967-1.057-13.105-4.764-17.284-10.438c-4.178-5.674-5.898-12.635-4.844-19.571L77.883,63.795    c1.946-12.833,13.131-22.425,26.084-22.425c0.099,0,0.198,0.001,0.297,0.002c0.078,0.001,0.155,0.001,0.233,0.001h244.753V275.146    z"/>
	</g>
</g>
<g>
	<g>
		<path d="M508.082,64.981c-5.092-37.646-37.551-65.542-75.49-64.972H369.93c-11.423,0-20.682,9.26-20.682,20.682    s9.259,20.682,20.682,20.682h62.829c0.121,0,0.244-0.001,0.365-0.003c16.673-0.283,30.972,11.636,33.78,27.941v161.604    c-2.808,16.303-17.1,28.225-33.78,27.941c-0.12-0.003-0.243-0.004-0.365-0.004H369.93c-11.423,0-20.682,9.259-20.682,20.682    s9.259,20.682,20.682,20.682h62.657c0.386,0.005,0.767,0.009,1.151,0.009c37.467-0.003,69.303-27.716,74.344-64.982    c0.125-0.919,0.187-1.845,0.187-2.772V67.753C508.269,66.826,508.207,65.9,508.082,64.981z"/>
	</g>
</g>
<g>
</g>
<g>
</g>
<g>
</g>
<g>
</g>
<g>
</g>
<g>
</g>
<g>
</g>
<g>
</g>
<g>
</g>
<g>
</g>
<g>
</g>
<g>
</g>
<g>
</g>
<g>
</g>
<g>
</g>
</svg>
