<?xml version="1.0" encoding="iso-8859-1"?>
<!-- Generator: Adobe Illustrator 19.0.0, SVG Export Plug-In . SVG Version: 6.00 Build 0)  -->
<svg xmlns="http://www.w3.org/2000/svg" xmlns:xlink="http://www.w3.org/1999/xlink" version="1.1" id="Layer_1" x="0px" y="0px" viewBox="0 0 512 512" style="enable-background:new 0 0 512 512;" xml:space="preserve">
<g>
	<g>
		<path d="M353.263,330.067c-6.446-9.648-14.179-18.176-23.074-25.458V74.154C330.19,33.265,296.923,0,256.035,0    c-40.889,0-74.154,33.265-74.154,74.154v230.447c-20.945,17.112-35.187,40.745-40.531,67.614    c-6.094,30.634,0.107,61.807,17.459,87.778c17.352,25.97,43.779,43.629,74.413,49.723c7.682,1.529,15.397,2.283,23.056,2.283    c22.883-0.001,45.264-6.742,64.721-19.743C374.61,456.437,389.084,383.678,353.263,330.067z M330.153,409.775    c-3.938,19.798-15.35,36.877-32.135,48.092c-16.783,11.215-36.927,15.222-56.728,11.283    c-19.797-3.939-36.877-15.351-48.091-32.135c-11.214-16.784-15.221-36.931-11.283-56.729    c3.939-19.798,15.351-36.877,32.135-48.091c5.743-3.838,9.192-10.288,9.192-17.196V74.154c0-18.082,14.71-32.792,32.792-32.792    s32.792,14.71,32.791,32.792v240.845c0,6.908,3.449,13.359,9.193,17.197c8.295,5.542,15.31,12.557,20.852,20.851    C330.085,369.831,334.092,389.978,330.153,409.775z"/>
	</g>
</g>
<g>
</g>
<g>
</g>
<g>
</g>
<g>
</g>
<g>
</g>
<g>
</g>
<g>
</g>
<g>
</g>
<g>
</g>
<g>
</g>
<g>
</g>
<g>
</g>
<g>
</g>
<g>
</g>
<g>
</g>
</svg>
