<?xml version="1.0" encoding="iso-8859-1"?>
<!-- Generator: Adobe Illustrator 19.0.0, SVG Export Plug-In . SVG Version: 6.00 Build 0)  -->
<svg xmlns="http://www.w3.org/2000/svg" xmlns:xlink="http://www.w3.org/1999/xlink" version="1.1" id="Layer_1" x="0px" y="0px" viewBox="0 0 512 512" style="enable-background:new 0 0 512 512;" xml:space="preserve">
<g>
	<g>
		<path d="M437.019,74.981C388.667,26.629,324.38,0,256,0S123.333,26.63,74.981,74.981S0,187.62,0,256    s26.629,132.667,74.981,181.019C123.332,485.371,187.62,512,256,512s132.667-26.629,181.019-74.981    C485.371,388.667,512,324.38,512,256S485.371,123.332,437.019,74.981z M256,470.636C137.65,470.636,41.364,374.35,41.364,256    S137.65,41.364,256,41.364S470.636,137.65,470.636,256S374.35,470.636,256,470.636z"/>
	</g>
</g>
<g>
	<g>
		<path d="M256,94.127c-89.257,0-161.873,72.616-161.873,161.873S166.743,417.873,256,417.873S417.873,345.257,417.873,256    S345.257,94.127,256,94.127z M256,376.508c-66.449,0-120.508-54.06-120.508-120.508S189.551,135.492,256,135.492    S376.508,189.551,376.508,256S322.449,376.508,256,376.508z"/>
	</g>
</g>
<g>
	<g>
		<path d="M256,188.254c-37.355,0-67.746,30.391-67.746,67.746s30.39,67.746,67.746,67.746s67.746-30.391,67.746-67.746    S293.355,188.254,256,188.254z M256,282.381c-14.547,0-26.381-11.835-26.381-26.381s11.835-26.381,26.381-26.381    s26.381,11.835,26.381,26.381S270.547,282.381,256,282.381z"/>
	</g>
</g>
<g>
</g>
<g>
</g>
<g>
</g>
<g>
</g>
<g>
</g>
<g>
</g>
<g>
</g>
<g>
</g>
<g>
</g>
<g>
</g>
<g>
</g>
<g>
</g>
<g>
</g>
<g>
</g>
<g>
</g>
</svg>
