<?xml version="1.0" encoding="iso-8859-1"?>
<!-- Generator: Adobe Illustrator 19.0.0, SVG Export Plug-In . SVG Version: 6.00 Build 0)  -->
<svg xmlns="http://www.w3.org/2000/svg" xmlns:xlink="http://www.w3.org/1999/xlink" version="1.1" id="Layer_1" x="0px" y="0px" viewBox="0 0 512 512" style="enable-background:new 0 0 512 512;" xml:space="preserve">
<g>
	<g>
		<path d="M491.735,216.986L280.833,6.083c-3.88-3.879-9.14-6.058-14.627-6.058H20.685C9.261,0.025,0,9.286,0,20.71v245.521    c0,5.49,2.182,10.755,6.068,14.635l210.901,210.657c0.014,0.013,0.026,0.026,0.039,0.039c13.18,13.165,30.693,20.414,49.32,20.414    c0.013,0,0.029,0,0.04,0c18.641-0.011,36.164-7.28,49.329-20.461l176.038-176.039c0.015-0.015,0.029-0.029,0.043-0.043    C518.748,288.303,518.748,244.159,491.735,216.986z M462.461,286.243L286.435,462.27c-5.364,5.37-12.499,8.33-20.09,8.335    c-0.006,0-0.011,0-0.017,0c-7.585,0-14.718-2.953-20.084-8.314c-0.004-0.003-0.007-0.006-0.01-0.01    c-0.009-0.01-0.019-0.019-0.029-0.029L41.37,257.656V41.395h216.267l204.802,204.801    C473.413,257.236,473.422,275.195,462.461,286.243z"/>
	</g>
</g>
<g>
	<g>
		<path d="M158.071,128.846c-3.852-3.852-9.184-6.058-14.627-6.058s-10.775,2.206-14.627,6.058    c-3.852,3.852-6.058,9.175-6.058,14.627c0,5.442,2.206,10.775,6.058,14.627c3.852,3.852,9.184,6.058,14.627,6.058    s10.775-2.206,14.627-6.058c3.852-3.852,6.058-9.184,6.058-14.627C164.13,138.021,161.923,132.698,158.071,128.846z"/>
	</g>
</g>
<g>
</g>
<g>
</g>
<g>
</g>
<g>
</g>
<g>
</g>
<g>
</g>
<g>
</g>
<g>
</g>
<g>
</g>
<g>
</g>
<g>
</g>
<g>
</g>
<g>
</g>
<g>
</g>
<g>
</g>
</svg>
