<?xml version="1.0" encoding="iso-8859-1"?>
<!-- Generator: Adobe Illustrator 19.0.0, SVG Export Plug-In . SVG Version: 6.00 Build 0)  -->
<svg xmlns="http://www.w3.org/2000/svg" xmlns:xlink="http://www.w3.org/1999/xlink" version="1.1" id="Layer_1" x="0px" y="0px" viewBox="0 0 512 512" style="enable-background:new 0 0 512 512;" xml:space="preserve">
<g>
	<g>
		<path d="M256,256.71c-70.384,0-127.645,57.261-127.645,127.645c0,11.423,9.26,20.682,20.682,20.682s20.682-9.259,20.682-20.682    c0-47.576,38.705-86.281,86.281-86.281s86.28,38.705,86.28,86.281c0,11.423,9.259,20.682,20.682,20.682    s20.682-9.259,20.682-20.682C383.644,313.971,326.383,256.71,256,256.71z"/>
	</g>
</g>
<g>
	<g>
		<path d="M256,21.393c-11.422,0-20.682,9.26-20.682,20.682v149.747c0,11.422,9.26,20.682,20.682,20.682    c11.423,0,20.682-9.259,20.682-20.681V42.075C276.682,30.653,267.423,21.393,256,21.393z"/>
	</g>
</g>
<g>
	<g>
		<path d="M134.567,233.674l-30.377-30.377c-8.076-8.077-21.172-8.077-29.248,0c-8.077,8.076-8.077,21.171,0,29.248l30.377,30.378    c4.038,4.039,9.332,6.058,14.625,6.058c5.294,0,10.587-2.019,14.624-6.058C142.644,254.846,142.644,241.751,134.567,233.674z"/>
	</g>
</g>
<g>
	<g>
		<path d="M63.467,363.673H20.682C9.26,363.673,0,372.932,0,384.355s9.26,20.682,20.682,20.682h42.785    c11.423,0,20.682-9.259,20.682-20.682S74.889,363.673,63.467,363.673z"/>
	</g>
</g>
<g>
	<g>
		<path d="M491.318,363.673h-42.786c-11.423,0-20.682,9.259-20.682,20.682s9.259,20.682,20.682,20.682h42.786    c11.423,0,20.682-9.259,20.682-20.682S502.741,363.673,491.318,363.673z"/>
	</g>
</g>
<g>
	<g>
		<path d="M437.059,203.297c-8.077-8.077-21.172-8.077-29.249,0l-30.377,30.377c-8.076,8.077-8.076,21.172,0,29.249    c4.038,4.039,9.332,6.058,14.625,6.058c5.292,0,10.586-2.02,14.625-6.057l30.377-30.378    C445.135,224.469,445.135,211.374,437.059,203.297z"/>
	</g>
</g>
<g>
	<g>
		<path d="M491.318,449.243H20.682C9.26,449.243,0,458.502,0,469.925s9.26,20.682,20.682,20.682h470.636    c11.423,0,20.682-9.259,20.682-20.682S502.741,449.243,491.318,449.243z"/>
	</g>
</g>
<g>
	<g>
		<path d="M356.195,91.628c-8.077-8.077-21.172-8.077-29.249,0L256,162.573l-70.946-70.945c-8.076-8.077-21.172-8.077-29.248,0    c-8.077,8.076-8.077,21.171,0,29.248l85.569,85.57c4.038,4.038,9.332,6.058,14.625,6.058s10.587-2.019,14.625-6.058l85.57-85.57    C364.271,112.8,364.271,99.705,356.195,91.628z"/>
	</g>
</g>
<g>
</g>
<g>
</g>
<g>
</g>
<g>
</g>
<g>
</g>
<g>
</g>
<g>
</g>
<g>
</g>
<g>
</g>
<g>
</g>
<g>
</g>
<g>
</g>
<g>
</g>
<g>
</g>
<g>
</g>
</svg>
