<?xml version="1.0" encoding="iso-8859-1"?>
<!-- Generator: Adobe Illustrator 19.0.0, SVG Export Plug-In . SVG Version: 6.00 Build 0)  -->
<svg xmlns="http://www.w3.org/2000/svg" xmlns:xlink="http://www.w3.org/1999/xlink" version="1.1" id="Layer_1" x="0px" y="0px" viewBox="0 0 512 512" style="enable-background:new 0 0 512 512;" xml:space="preserve">
<g>
	<g>
		<path d="M256,128.355c-70.384,0-127.645,57.261-127.645,127.645c0,70.383,57.261,127.644,127.645,127.644    c70.383,0,127.644-57.261,127.644-127.644C383.644,185.616,326.383,128.355,256,128.355z M256,342.28    c-47.576,0-86.281-38.704-86.281-86.28s38.705-86.281,86.281-86.281s86.28,38.705,86.28,86.281S303.576,342.28,256,342.28z"/>
	</g>
</g>
<g>
	<g>
		<path d="M256,0c-11.422,0-20.682,9.26-20.682,20.682v42.785c0,11.422,9.26,20.682,20.682,20.682    c11.423,0,20.682-9.259,20.682-20.682V20.682C276.682,9.26,267.423,0,256,0z"/>
	</g>
</g>
<g>
	<g>
		<path d="M256,427.85c-11.422,0-20.682,9.259-20.682,20.682v42.786c0,11.423,9.26,20.682,20.682,20.682    c11.423,0,20.682-9.259,20.682-20.682v-42.786C276.682,437.109,267.423,427.85,256,427.85z"/>
	</g>
</g>
<g>
	<g>
		<path d="M134.567,105.319L104.19,74.942c-8.076-8.077-21.172-8.077-29.248,0c-8.077,8.076-8.077,21.171,0,29.248l30.377,30.377    c4.038,4.038,9.332,6.058,14.625,6.058c5.294,0,10.587-2.019,14.624-6.058C142.644,126.492,142.644,113.397,134.567,105.319z"/>
	</g>
</g>
<g>
	<g>
		<path d="M437.059,407.809l-30.377-30.377c-8.077-8.077-21.172-8.077-29.249,0c-8.076,8.077-8.076,21.172,0,29.249l30.377,30.377    c4.038,4.039,9.332,6.058,14.625,6.058c5.292,0,10.586-2.02,14.625-6.058C445.135,428.982,445.135,415.886,437.059,407.809z"/>
	</g>
</g>
<g>
	<g>
		<path d="M63.467,235.318H20.682C9.26,235.318,0,244.578,0,256c0,11.423,9.26,20.682,20.682,20.682h42.785    c11.423,0,20.682-9.259,20.682-20.682C84.149,244.578,74.889,235.318,63.467,235.318z"/>
	</g>
</g>
<g>
	<g>
		<path d="M491.318,235.318h-42.786c-11.423,0-20.682,9.26-20.682,20.682c0,11.423,9.259,20.682,20.682,20.682h42.786    c11.423,0,20.682-9.259,20.682-20.682C512,244.578,502.741,235.318,491.318,235.318z"/>
	</g>
</g>
<g>
	<g>
		<path d="M134.568,377.432c-8.077-8.076-21.173-8.076-29.249,0l-30.377,30.377c-8.077,8.077-8.077,21.172,0,29.249    c4.039,4.039,9.331,6.058,14.625,6.058c5.292,0,10.587-2.02,14.625-6.058l30.377-30.377    C142.645,398.604,142.645,385.509,134.568,377.432z"/>
	</g>
</g>
<g>
	<g>
		<path d="M437.059,74.941c-8.077-8.077-21.172-8.077-29.249,0l-30.377,30.377c-8.076,8.077-8.076,21.172,0,29.249    c4.038,4.038,9.332,6.058,14.625,6.058c5.292,0,10.586-2.019,14.625-6.058l30.377-30.377    C445.135,96.114,445.135,83.018,437.059,74.941z"/>
	</g>
</g>
<g>
</g>
<g>
</g>
<g>
</g>
<g>
</g>
<g>
</g>
<g>
</g>
<g>
</g>
<g>
</g>
<g>
</g>
<g>
</g>
<g>
</g>
<g>
</g>
<g>
</g>
<g>
</g>
<g>
</g>
</svg>
