<?xml version="1.0" encoding="iso-8859-1"?>
<!-- Generator: Adobe Illustrator 19.0.0, SVG Export Plug-In . SVG Version: 6.00 Build 0)  -->
<svg xmlns="http://www.w3.org/2000/svg" xmlns:xlink="http://www.w3.org/1999/xlink" version="1.1" id="Layer_1" x="0px" y="0px" viewBox="0 0 512 512" style="enable-background:new 0 0 512 512;" xml:space="preserve">
<g>
	<g>
		<path d="M112.195,0C57.539,0,13.074,44.467,13.074,99.122c0,54.655,44.466,99.121,99.121,99.121    c54.655,0,99.121-44.467,99.121-99.122C211.316,44.466,166.851,0,112.195,0z M112.195,156.878    c-31.847,0-57.757-25.91-57.757-57.757c0-31.847,25.91-57.757,57.757-57.757c31.847,0,57.757,25.91,57.757,57.757    C169.952,130.968,144.042,156.878,112.195,156.878z"/>
	</g>
</g>
<g>
	<g>
		<path d="M112.195,313.757c-54.655,0-99.121,44.466-99.121,99.122c0,54.655,44.466,99.121,99.121,99.121    c54.655,0,99.121-44.466,99.121-99.121C211.316,358.223,166.85,313.757,112.195,313.757z M112.195,470.636    c-31.848,0-57.757-25.91-57.757-57.757c0-31.847,25.91-57.758,57.757-57.758c31.847,0,57.757,25.911,57.757,57.758    C169.952,444.726,144.042,470.636,112.195,470.636z"/>
	</g>
</g>
<g>
	<g>
		<path d="M492.868,32.204c-8.077-8.076-21.172-8.076-29.249,0L153,342.823c-8.077,8.077-8.077,21.172,0,29.249    c4.038,4.039,9.332,6.058,14.625,6.058s10.587-2.019,14.624-6.058l310.62-310.619C500.944,53.376,500.944,40.281,492.868,32.204z"/>
	</g>
</g>
<g>
	<g>
		<path d="M492.855,450.535L348.266,306.206c-8.084-8.071-21.18-8.059-29.248,0.026c-8.071,8.084-8.059,21.18,0.026,29.248    l144.589,144.329c4.038,4.031,9.324,6.045,14.612,6.045c5.298,0,10.598-2.024,14.637-6.07    C500.952,471.699,500.94,458.604,492.855,450.535z"/>
	</g>
</g>
<g>
	<g>
		<path d="M283.698,241.375L182.25,139.928c-8.076-8.077-21.172-8.077-29.249,0s-8.077,21.172,0,29.249l101.449,101.448    c4.038,4.039,9.332,6.058,14.625,6.058c5.293,0,10.587-2.019,14.625-6.058C291.774,262.548,291.774,249.452,283.698,241.375z"/>
	</g>
</g>
<g>
</g>
<g>
</g>
<g>
</g>
<g>
</g>
<g>
</g>
<g>
</g>
<g>
</g>
<g>
</g>
<g>
</g>
<g>
</g>
<g>
</g>
<g>
</g>
<g>
</g>
<g>
</g>
<g>
</g>
</svg>
