<?xml version="1.0" encoding="iso-8859-1"?>
<!-- Generator: Adobe Illustrator 19.0.0, SVG Export Plug-In . SVG Version: 6.00 Build 0)  -->
<svg xmlns="http://www.w3.org/2000/svg" xmlns:xlink="http://www.w3.org/1999/xlink" version="1.1" id="Layer_1" x="0px" y="0px" viewBox="0 0 512 512" style="enable-background:new 0 0 512 512;" xml:space="preserve">
<g>
	<g>
		<path d="M161.845,188.046H41.359V67.56c0-11.421-9.259-20.68-20.68-20.68S0,56.139,0,67.56v141.166    c0,11.421,9.259,20.68,20.68,20.68h141.166c11.422,0,20.68-9.259,20.68-20.68S173.266,188.046,161.845,188.046z"/>
	</g>
</g>
<g>
	<g>
		<path d="M498.671,178.765c-20.63-58.556-62.828-105.573-118.821-132.39c-55.995-26.817-119.08-30.225-177.634-9.594    c-32.41,11.418-62.399,30.261-86.752,54.504L6.518,193.655c-8.322,7.822-8.73,20.909-0.909,29.232    c7.822,8.323,20.909,8.731,29.232,0.909l109.168-102.581c0.152-0.143,0.302-0.288,0.449-0.436    c20.052-20.018,44.776-35.575,71.5-44.991c99.371-35.009,208.694,17.352,243.703,116.719    c35.01,99.37-17.351,208.694-116.719,243.703c-99.368,35.011-208.694-17.352-243.703-116.72    c-3.795-10.772-15.603-16.428-26.376-12.633c-10.773,3.796-16.429,15.604-12.634,26.376    c20.631,58.556,62.828,105.574,118.821,132.392c31.831,15.245,65.949,22.924,100.228,22.924c26.021,0,52.138-4.427,77.407-13.33    c58.556-20.63,105.573-62.828,132.391-118.821C515.893,300.405,519.301,237.32,498.671,178.765z"/>
	</g>
</g>
<g>
</g>
<g>
</g>
<g>
</g>
<g>
</g>
<g>
</g>
<g>
</g>
<g>
</g>
<g>
</g>
<g>
</g>
<g>
</g>
<g>
</g>
<g>
</g>
<g>
</g>
<g>
</g>
<g>
</g>
</svg>
