<?xml version="1.0" encoding="iso-8859-1"?>
<!-- Generator: Adobe Illustrator 19.0.0, SVG Export Plug-In . SVG Version: 6.00 Build 0)  -->
<svg xmlns="http://www.w3.org/2000/svg" xmlns:xlink="http://www.w3.org/1999/xlink" version="1.1" id="Layer_1" x="0px" y="0px" viewBox="0 0 512 512" style="enable-background:new 0 0 512 512;" xml:space="preserve">
<g>
	<g>
		<path d="M397.191,0H114.809c-11.422,0-20.682,9.26-20.682,20.682v164.722c0,11.422,9.26,20.682,20.682,20.682    s20.682-9.26,20.682-20.682V41.364h241.017v144.04c0,11.422,9.259,20.682,20.682,20.682c11.422,0,20.682-9.26,20.682-20.682    V20.682C417.873,9.26,408.614,0,397.191,0z"/>
	</g>
</g>
<g>
	<g>
		<path d="M444.254,164.722H67.746C30.391,164.722,0,195.113,0,232.468v117.659c0,37.355,30.391,67.746,67.746,67.746h47.064    c11.422,0,20.682-9.259,20.682-20.682s-9.26-20.682-20.682-20.682H67.746c-14.547,0-26.381-11.834-26.381-26.38V232.469    c0-14.547,11.835-26.381,26.381-26.381h376.508c14.547,0,26.381,11.835,26.381,26.381v117.659c0,14.547-11.835,26.38-26.381,26.38    h-47.064c-11.423,0-20.682,9.259-20.682,20.682s9.259,20.682,20.682,20.682h47.064c37.355,0,67.746-30.391,67.746-67.746V232.468    C512,195.113,481.61,164.722,444.254,164.722z"/>
	</g>
</g>
<g>
	<g>
		<path d="M397.191,282.381H114.809c-11.422,0-20.682,9.259-20.682,20.682v188.254c0,11.423,9.26,20.682,20.682,20.682h282.381    c11.422,0,20.682-9.259,20.682-20.682V303.064C417.873,291.641,408.614,282.381,397.191,282.381z M376.508,470.636H135.492    v-146.89h241.017V470.636z"/>
	</g>
</g>
<g>
</g>
<g>
</g>
<g>
</g>
<g>
</g>
<g>
</g>
<g>
</g>
<g>
</g>
<g>
</g>
<g>
</g>
<g>
</g>
<g>
</g>
<g>
</g>
<g>
</g>
<g>
</g>
<g>
</g>
</svg>
