<?xml version="1.0" encoding="iso-8859-1"?>
<!-- Generator: Adobe Illustrator 19.0.0, SVG Export Plug-In . SVG Version: 6.00 Build 0)  -->
<svg xmlns="http://www.w3.org/2000/svg" xmlns:xlink="http://www.w3.org/1999/xlink" version="1.1" id="Layer_1" x="0px" y="0px" viewBox="0 0 512 512" style="enable-background:new 0 0 512 512;" xml:space="preserve">
<g>
	<g>
		<path d="M420.385,115.232c-8.075-8.078-21.171-8.081-29.248-0.005c-8.078,8.076-8.081,21.171-0.005,29.249    c36.083,36.095,55.95,84.081,55.941,135.118c-0.008,51.037-19.89,99.016-55.985,135.1    c-37.251,37.239-86.163,55.856-135.087,55.852c-48.936-0.004-97.883-18.636-135.131-55.896    c-74.462-74.487-74.462-195.687,0-270.174c8.076-8.078,8.073-21.173-0.005-29.249s-21.174-8.073-29.249,0.005    C47.73,159.13,23.563,217.491,23.563,279.563c0,62.072,24.169,120.432,68.053,164.331C135.51,487.803,193.877,511.99,255.963,512    c0.015,0,0.023,0,0.039,0c62.07-0.002,120.432-24.169,164.33-68.053c43.91-43.894,68.096-102.26,68.106-164.346    C488.448,217.514,464.28,159.141,420.385,115.232z"/>
	</g>
</g>
<g>
	<g>
		<path d="M256.117,0c-11.422,0-20.682,9.26-20.682,20.682v235.283c0,11.423,9.26,20.682,20.682,20.682    c11.423,0,20.682-9.259,20.682-20.682V20.682C276.799,9.26,267.54,0,256.117,0z"/>
	</g>
</g>
<g>
</g>
<g>
</g>
<g>
</g>
<g>
</g>
<g>
</g>
<g>
</g>
<g>
</g>
<g>
</g>
<g>
</g>
<g>
</g>
<g>
</g>
<g>
</g>
<g>
</g>
<g>
</g>
<g>
</g>
</svg>
