<?xml version="1.0" encoding="iso-8859-1"?>
<!-- Generator: Adobe Illustrator 19.0.0, SVG Export Plug-In . SVG Version: 6.00 Build 0)  -->
<svg xmlns="http://www.w3.org/2000/svg" xmlns:xlink="http://www.w3.org/1999/xlink" version="1.1" id="Layer_1" x="0px" y="0px" viewBox="0 0 512 512" style="enable-background:new 0 0 512 512;" xml:space="preserve">
<g>
	<g>
		<path d="M439.026,0H72.975C32.737,0,0,32.737,0,72.975v366.05C0,479.264,32.737,512,72.975,512h366.05    C479.264,512,512,479.264,512,439.026V72.975C512,32.737,479.264,0,439.026,0z M470.636,439.025    c0,17.43-14.181,31.611-31.61,31.611H72.975c-17.43,0-31.611-14.181-31.611-31.61V72.975c0-17.43,14.181-31.611,31.611-31.611    h366.05c17.43,0,31.611,14.181,31.611,31.611V439.025z"/>
	</g>
</g>
<g>
	<g>
		<path d="M256,130.732c-11.422,0-20.682,9.26-20.682,20.682v209.171c0,11.423,9.26,20.682,20.682,20.682    c11.423,0,20.682-9.259,20.682-20.682V151.414C276.682,139.992,267.423,130.732,256,130.732z"/>
	</g>
</g>
<g>
	<g>
		<path d="M360.585,235.318H151.414c-11.422,0-20.682,9.26-20.682,20.682c0,11.423,9.26,20.682,20.682,20.682h209.171    c11.423,0,20.682-9.259,20.682-20.682C381.267,244.578,372.008,235.318,360.585,235.318z"/>
	</g>
</g>
<g>
</g>
<g>
</g>
<g>
</g>
<g>
</g>
<g>
</g>
<g>
</g>
<g>
</g>
<g>
</g>
<g>
</g>
<g>
</g>
<g>
</g>
<g>
</g>
<g>
</g>
<g>
</g>
<g>
</g>
</svg>
