<?xml version="1.0" encoding="iso-8859-1"?>
<!-- Generator: Adobe Illustrator 19.0.0, SVG Export Plug-In . SVG Version: 6.00 Build 0)  -->
<svg xmlns="http://www.w3.org/2000/svg" xmlns:xlink="http://www.w3.org/1999/xlink" version="1.1" id="Layer_1" x="0px" y="0px" viewBox="0 0 512 512" style="enable-background:new 0 0 512 512;" xml:space="preserve">
<g>
	<g>
		<path d="M436.027,297.346c-0.063-0.008-0.128-0.018-0.191-0.026c-18.963-2.501-37.666-7.16-55.541-13.83    c-23.115-8.69-49.399-3.084-66.957,14.281c-0.028,0.028-0.055,0.055-0.082,0.082l-15.743,15.742    c-19.927-12.652-38.417-27.471-55.119-44.188c-8.073-8.08-21.169-8.085-29.249-0.013c-8.08,8.073-8.086,21.168-0.013,29.249    c23.017,23.036,49.044,42.88,77.356,58.98c8.093,4.602,18.264,3.23,24.847-3.353l27.118-27.117    c6.117-6.024,15.255-7.965,23.334-4.926c20.804,7.764,42.513,13.176,64.527,16.087c10.907,1.582,19.041,11.065,18.932,22.093    c-0.001,0.068-0.001,0.136-0.001,0.203v64.262c0.024,5.903-2.253,11.463-6.411,15.654c-4.158,4.192-9.699,6.513-15.602,6.536    c-0.667,0.001-1.288-0.022-1.92-0.075c-62.226-6.797-122.871-28.386-175.386-62.444c-0.055-0.036-0.111-0.072-0.167-0.108    c-24.448-15.523-47.222-33.783-67.691-54.274c-8.072-8.08-21.167-8.088-29.248-0.017c-8.082,8.073-8.089,21.168-0.017,29.249    c22.591,22.616,47.723,42.771,74.702,59.909c57.958,37.568,124.884,61.367,193.551,68.828c0.122,0.014,0.245,0.026,0.368,0.037    c1.891,0.171,3.814,0.257,5.722,0.257c0.083,0,0.167,0,0.254,0.001c16.952-0.068,32.864-6.734,44.802-18.77    s18.476-28,18.407-44.869v-64.085C490.866,329.012,467.419,301.784,436.027,297.346z"/>
	</g>
</g>
<g>
	<g>
		<path d="M228.528,131.753c-6.686-17.921-11.346-36.624-13.847-55.586c-0.008-0.063-0.017-0.127-0.026-0.19    c-4.413-31.224-31.366-54.585-62.841-54.585c-0.168,0-0.344,0.001-0.513,0.002H87.2c-1.88,0.002-3.783,0.088-5.658,0.257    c-34.854,3.15-60.647,34.068-57.498,68.921c0.012,0.124,0.024,0.249,0.038,0.373c7.465,68.699,31.284,135.657,68.884,193.636    c3.961,6.108,10.598,9.432,17.372,9.432c3.856,0,7.757-1.078,11.235-3.333c9.585-6.216,12.315-19.022,6.1-28.606    c-34.058-52.517-55.648-113.16-62.444-175.383c-1.006-12.073,7.952-22.752,20.037-23.844c0.651-0.059,1.313-0.089,1.95-0.089    h64.176c0.14,0,0.28-0.002,0.422-0.002c10.935,0,20.304,8.099,21.874,18.934c2.912,22.012,8.324,43.72,16.105,64.572    c3.02,8.035,1.081,17.167-4.938,23.283l-27.122,27.122c-8.077,8.077-8.077,21.172,0,29.249c8.077,8.076,21.173,8.077,29.249,0    l27.169-27.168c0.027-0.028,0.054-0.055,0.082-0.083C231.595,181.105,237.2,154.822,228.528,131.753z"/>
	</g>
</g>
<g>
	<g>
		<path d="M505.943,6.058c-8.077-8.077-21.172-8.077-29.249,0L6.058,476.693c-8.077,8.077-8.077,21.172,0,29.249    C10.096,509.982,15.39,512,20.683,512c5.293,0,10.586-2.019,14.625-6.059L505.943,35.306    C514.019,27.23,514.019,14.135,505.943,6.058z"/>
	</g>
</g>
<g>
</g>
<g>
</g>
<g>
</g>
<g>
</g>
<g>
</g>
<g>
</g>
<g>
</g>
<g>
</g>
<g>
</g>
<g>
</g>
<g>
</g>
<g>
</g>
<g>
</g>
<g>
</g>
<g>
</g>
</svg>
