<?xml version="1.0" encoding="iso-8859-1"?>
<!-- Generator: Adobe Illustrator 19.0.0, SVG Export Plug-In . SVG Version: 6.00 Build 0)  -->
<svg xmlns="http://www.w3.org/2000/svg" xmlns:xlink="http://www.w3.org/1999/xlink" version="1.1" id="Layer_1" x="0px" y="0px" viewBox="0 0 512.001 512.001" style="enable-background:new 0 0 512.001 512.001;" xml:space="preserve">
<g>
	<g>
		<path d="M505.495,6.058c-8.078-8.076-21.171-8.076-29.249,0l-134.93,134.929c-8.076,8.077-8.076,21.172,0,29.249    c4.039,4.039,9.331,6.058,14.625,6.058c5.293,0,10.587-2.019,14.626-6.058L505.495,35.307    C513.571,27.23,513.571,14.135,505.495,6.058z"/>
	</g>
</g>
<g>
	<g>
		<path d="M505.495,140.987L370.565,6.058c-8.077-8.077-21.172-8.077-29.249,0c-8.076,8.077-8.076,21.172,0,29.249l134.931,134.929    c4.038,4.038,9.332,6.058,14.625,6.058c5.292,0,10.586-2.019,14.624-6.058C513.571,162.159,513.571,149.064,505.495,140.987z"/>
	</g>
</g>
<g>
	<g>
		<path d="M432.592,312.565c-0.062-0.008-0.124-0.017-0.186-0.025c-20.013-2.639-39.751-7.557-58.619-14.596    c-23.91-8.99-51.103-3.191-69.27,14.772c-0.028,0.028-0.056,0.055-0.083,0.083l-17.148,17.148    c-42.633-26.924-78.756-63.048-105.68-105.68l17.149-17.149c0.027-0.028,0.054-0.055,0.082-0.083    c17.964-18.166,23.762-45.357,14.79-69.223c-7.057-18.915-11.974-38.653-14.614-58.666c-0.007-0.063-0.017-0.127-0.026-0.19    c-4.591-32.478-32.782-56.735-65.548-56.467H66.054c-1.943,0.002-3.912,0.091-5.853,0.267C24.143,26.014-2.54,57.999,0.718,94.057    c0.01,0.108,0.02,0.215,0.032,0.323c7.684,72.355,32.649,142.88,72.198,203.956C108.84,354.797,157.65,403.605,214.11,439.5    c60.792,39.406,130.99,64.37,203.014,72.197c0.127,0.015,0.254,0.027,0.381,0.038c1.961,0.177,3.949,0.266,5.921,0.266    c0.083,0,0.165,0,0.247,0.001c36.204-0.148,65.538-29.722,65.392-65.841v-67.233C489.748,345.713,465.517,317.21,432.592,312.565z     M447.7,378.695v67.548c0.055,13.396-10.8,24.338-24.19,24.393c-0.715-0.004-1.425-0.027-2.135-0.085    c-65.578-7.161-129.488-29.914-184.837-65.806c-0.053-0.035-0.107-0.069-0.161-0.103c-51.429-32.68-95.886-77.137-128.565-128.565    c-0.032-0.051-0.064-0.101-0.097-0.153C71.685,220.306,48.93,156.087,41.903,90.193C40.78,76.91,50.631,65.154,63.924,63.952    c0.717-0.064,1.443-0.098,2.145-0.098h67.464c0.146-0.001,0.294-0.003,0.443-0.002c12.021,0,22.322,8.905,24.044,20.819    c3.05,23.063,8.721,45.806,16.871,67.649c3.319,8.832,1.189,18.869-5.427,25.591l-28.518,28.518    c-6.583,6.582-7.956,16.753-3.354,24.847c33.837,59.508,83.177,108.847,142.685,142.685c8.094,4.6,18.264,3.23,24.848-3.355    l28.512-28.512c6.72-6.621,16.765-8.752,25.642-5.415c21.799,8.134,44.547,13.805,67.611,16.855    c12.18,1.757,21.122,12.339,20.816,24.647C447.702,378.353,447.7,378.524,447.7,378.695z"/>
	</g>
</g>
<g>
</g>
<g>
</g>
<g>
</g>
<g>
</g>
<g>
</g>
<g>
</g>
<g>
</g>
<g>
</g>
<g>
</g>
<g>
</g>
<g>
</g>
<g>
</g>
<g>
</g>
<g>
</g>
<g>
</g>
</svg>
