<?xml version="1.0" encoding="iso-8859-1"?>
<!-- Generator: Adobe Illustrator 19.0.0, SVG Export Plug-In . SVG Version: 6.00 Build 0)  -->
<svg xmlns="http://www.w3.org/2000/svg" xmlns:xlink="http://www.w3.org/1999/xlink" version="1.1" id="Layer_1" x="0px" y="0px" viewBox="0 0 512 512" style="enable-background:new 0 0 512 512;" xml:space="preserve">
<g>
	<g>
		<path d="M167.756,0h-58.829C81.303,0,58.829,22.474,58.829,50.097v411.806c0,27.624,22.474,50.097,50.097,50.097h58.829    c27.623,0,50.097-22.473,50.097-50.097V50.097C217.853,22.474,195.379,0,167.756,0z M176.488,461.903    c0,4.815-3.918,8.732-8.732,8.732h-58.829c-4.815,0-8.732-3.918-8.732-8.732V50.097c0-4.815,3.918-8.732,8.732-8.732h58.829    c4.815,0,8.732,3.918,8.732,8.732V461.903z"/>
	</g>
</g>
<g>
	<g>
		<path d="M403.074,0h-58.829c-27.624,0-50.097,22.474-50.097,50.097v411.806c0,27.624,22.473,50.097,50.097,50.097h58.829    c27.624,0,50.097-22.473,50.097-50.097V50.097C453.171,22.474,430.698,0,403.074,0z M411.806,461.903    c0,4.815-3.918,8.732-8.732,8.732h-58.829c-4.815,0-8.733-3.918-8.733-8.732V50.097c0-4.815,3.918-8.732,8.733-8.732h58.829    c4.815,0,8.732,3.918,8.732,8.732V461.903z"/>
	</g>
</g>
<g>
</g>
<g>
</g>
<g>
</g>
<g>
</g>
<g>
</g>
<g>
</g>
<g>
</g>
<g>
</g>
<g>
</g>
<g>
</g>
<g>
</g>
<g>
</g>
<g>
</g>
<g>
</g>
<g>
</g>
</svg>
