<?xml version="1.0" encoding="iso-8859-1"?>
<!-- Generator: Adobe Illustrator 19.0.0, SVG Export Plug-In . SVG Version: 6.00 Build 0)  -->
<svg xmlns="http://www.w3.org/2000/svg" xmlns:xlink="http://www.w3.org/1999/xlink" version="1.1" id="Layer_1" x="0px" y="0px" viewBox="0 0 512 512" style="enable-background:new 0 0 512 512;" xml:space="preserve">
<g>
	<g>
		<path d="M177.561,366.051H72.975C32.737,366.051,0,398.788,0,439.026S32.737,512,72.975,512h52.293    c40.238,0,72.975-32.736,72.975-72.974v-52.293C198.243,375.31,188.983,366.051,177.561,366.051z M156.879,439.025    c0,17.43-14.181,31.611-31.611,31.611H72.975c-17.43,0-31.611-14.18-31.611-31.61s14.181-31.611,31.611-31.611v-0.001h83.904    V439.025z"/>
	</g>
</g>
<g>
	<g>
		<path d="M491.318,313.757H386.732c-40.239,0-72.976,32.737-72.976,72.976c0,40.239,32.738,72.975,72.976,72.975h52.293    c40.239,0,72.975-32.737,72.975-72.975v-52.294C512,323.016,502.741,313.757,491.318,313.757z M470.637,386.733    c0,17.43-14.181,31.611-31.611,31.611h-52.293c-17.431,0-31.612-14.181-31.612-31.611c0-17.431,14.181-31.612,31.612-31.612    h83.904V386.733z"/>
	</g>
</g>
<g>
	<g>
		<path d="M504.686,4.902c-4.638-3.929-10.769-5.62-16.768-4.62L174.161,52.575c-9.972,1.662-17.282,10.291-17.282,20.401v313.758    c0,11.423,9.26,20.682,20.682,20.682c11.422,0,20.682-9.259,20.682-20.683V90.496l272.392-45.398v289.342    c0,11.423,9.259,20.682,20.682,20.682c11.423,0,20.682-9.259,20.682-20.682V20.683C512,14.604,509.325,8.831,504.686,4.902z"/>
	</g>
</g>
<g>
</g>
<g>
</g>
<g>
</g>
<g>
</g>
<g>
</g>
<g>
</g>
<g>
</g>
<g>
</g>
<g>
</g>
<g>
</g>
<g>
</g>
<g>
</g>
<g>
</g>
<g>
</g>
<g>
</g>
</svg>
