<?xml version="1.0" encoding="iso-8859-1"?>
<!-- Generator: Adobe Illustrator 19.0.0, SVG Export Plug-In . SVG Version: 6.00 Build 0)  -->
<svg xmlns="http://www.w3.org/2000/svg" xmlns:xlink="http://www.w3.org/1999/xlink" version="1.1" id="Layer_1" x="0px" y="0px" viewBox="0 0 512 512" style="enable-background:new 0 0 512 512;" xml:space="preserve">
<g>
	<g>
		<path d="M105.902,311.971L49.932,256l55.97-55.971c8.077-8.076,8.077-21.171,0-29.248c-8.076-8.077-21.172-8.077-29.248,0    L6.058,241.375c-8.077,8.077-8.077,21.172,0,29.249l70.595,70.595c4.038,4.039,9.332,6.058,14.625,6.058    c5.293,0,10.586-2.019,14.625-6.058C113.98,333.143,113.98,320.048,105.902,311.971z"/>
	</g>
</g>
<g>
	<g>
		<path d="M341.22,76.654L270.625,6.059c-8.077-8.077-21.171-8.077-29.249,0l-70.594,70.595c-8.077,8.076-8.077,21.171,0,29.248    c8.076,8.077,21.172,8.077,29.248,0L256,49.932l55.971,55.971c4.038,4.038,9.332,6.058,14.625,6.058    c5.293,0,10.586-2.019,14.625-6.058C349.296,97.826,349.296,84.731,341.22,76.654z"/>
	</g>
</g>
<g>
	<g>
		<path d="M341.22,406.098c-8.077-8.077-21.172-8.077-29.249,0L256,462.07l-55.971-55.972c-8.076-8.077-21.172-8.077-29.248,0    c-8.077,8.077-8.077,21.172,0,29.249l70.594,70.595C245.414,509.982,250.707,512,256,512s10.587-2.019,14.625-6.058l70.595-70.595    C349.296,427.27,349.296,414.175,341.22,406.098z"/>
	</g>
</g>
<g>
	<g>
		<path d="M505.943,241.375l-70.595-70.594c-8.077-8.077-21.172-8.077-29.249,0c-8.076,8.076-8.076,21.171,0,29.248L462.07,256    l-55.972,55.971c-8.076,8.077-8.076,21.172,0,29.249c4.038,4.039,9.332,6.058,14.625,6.058c5.293,0,10.587-2.019,14.625-6.058    l70.595-70.595C514.019,262.548,514.019,249.453,505.943,241.375z"/>
	</g>
</g>
<g>
	<g>
		<path d="M491.318,235.318H20.682C9.26,235.318,0,244.578,0,256c0,11.423,9.26,20.682,20.682,20.682h470.636    c11.423,0,20.682-9.259,20.682-20.682C512,244.578,502.741,235.318,491.318,235.318z"/>
	</g>
</g>
<g>
	<g>
		<path d="M256,0c-11.422,0-20.682,9.26-20.682,20.682v470.636c0,11.423,9.26,20.682,20.682,20.682    c11.423,0,20.682-9.259,20.682-20.682V20.682C276.682,9.26,267.423,0,256,0z"/>
	</g>
</g>
<g>
</g>
<g>
</g>
<g>
</g>
<g>
</g>
<g>
</g>
<g>
</g>
<g>
</g>
<g>
</g>
<g>
</g>
<g>
</g>
<g>
</g>
<g>
</g>
<g>
</g>
<g>
</g>
<g>
</g>
</svg>
