<?xml version="1.0" encoding="iso-8859-1"?>
<!-- Generator: Adobe Illustrator 19.0.0, SVG Export Plug-In . SVG Version: 6.00 Build 0)  -->
<svg xmlns="http://www.w3.org/2000/svg" xmlns:xlink="http://www.w3.org/1999/xlink" version="1.1" id="Layer_1" x="0px" y="0px" viewBox="0 0 512 512" style="enable-background:new 0 0 512 512;" xml:space="preserve">
<g>
	<g>
		<path d="M501.473,259.169c-7.102-4.003-15.894-3.461-22.448,1.386c-57.852,42.763-135.593,42.765-193.447,0    c-34.953-25.836-57.753-63.736-64.199-106.72c-6.447-42.984,4.231-85.906,30.067-120.859c4.846-6.556,5.388-15.346,1.386-22.448    c-4.003-7.102-11.799-11.189-19.921-10.44C109.96,11.45,12.475,108.935,1.112,231.886c-6.304,68.22,14.337,134.811,58.117,187.507    c43.78,52.696,105.462,85.19,173.682,91.494c8.049,0.745,16.074,1.113,24.057,1.113c59.68,0,116.97-20.613,163.45-59.227    c52.696-43.781,85.19-105.463,91.494-173.682C512.663,270.973,508.575,263.171,501.473,259.169z M393.986,420.956    c-44.197,36.72-100.049,54.026-157.269,48.743c-57.219-5.288-108.953-32.54-145.673-76.739    c-36.72-44.198-54.031-100.05-48.743-157.268C50.489,147.09,112,74.256,194.568,49.456c-14.813,34.476-19.8,72.476-14.096,110.514    c8.086,53.911,36.681,101.445,80.519,133.848c35.374,26.146,77.323,39.967,121.311,39.967c27.984,0,55.141-5.593,80.306-16.396    C450.607,357.648,427.032,393.501,393.986,420.956z"/>
	</g>
</g>
<g>
</g>
<g>
</g>
<g>
</g>
<g>
</g>
<g>
</g>
<g>
</g>
<g>
</g>
<g>
</g>
<g>
</g>
<g>
</g>
<g>
</g>
<g>
</g>
<g>
</g>
<g>
</g>
<g>
</g>
</svg>
