<?xml version="1.0" encoding="iso-8859-1"?>
<!-- Generator: Adobe Illustrator 19.0.0, SVG Export Plug-In . SVG Version: 6.00 Build 0)  -->
<svg xmlns="http://www.w3.org/2000/svg" xmlns:xlink="http://www.w3.org/1999/xlink" version="1.1" id="Layer_1" x="0px" y="0px" viewBox="0 0 512 512" style="enable-background:new 0 0 512 512;" xml:space="preserve">
<g>
	<g>
		<path d="M444.254,23.532H67.746C30.391,23.532,0,53.923,0,91.278v235.318c0,37.355,30.391,67.746,67.746,67.746h376.508    c37.355,0,67.746-30.391,67.746-67.746V91.278C512,53.923,481.61,23.532,444.254,23.532z M470.636,326.595    c0,14.547-11.835,26.381-26.381,26.381H67.746c-14.547,0-26.381-11.835-26.381-26.381V91.278    c0-14.547,11.835-26.381,26.381-26.381h376.508c14.547,0,26.381,11.835,26.381,26.381V326.595z"/>
	</g>
</g>
<g>
	<g>
		<path d="M350.127,447.104H161.873c-11.422,0-20.682,9.259-20.682,20.682s9.26,20.682,20.682,20.682h188.254    c11.423,0,20.682-9.259,20.682-20.682S361.55,447.104,350.127,447.104z"/>
	</g>
</g>
<g>
	<g>
		<path d="M256,352.977c-11.422,0-20.682,9.259-20.682,20.682v94.127c0,11.423,9.26,20.682,20.682,20.682    c11.423,0,20.682-9.259,20.682-20.682v-94.127C276.682,362.236,267.423,352.977,256,352.977z"/>
	</g>
</g>
<g>
</g>
<g>
</g>
<g>
</g>
<g>
</g>
<g>
</g>
<g>
</g>
<g>
</g>
<g>
</g>
<g>
</g>
<g>
</g>
<g>
</g>
<g>
</g>
<g>
</g>
<g>
</g>
<g>
</g>
</svg>
