<?xml version="1.0" encoding="iso-8859-1"?>
<!-- Generator: Adobe Illustrator 19.0.0, SVG Export Plug-In . SVG Version: 6.00 Build 0)  -->
<svg xmlns="http://www.w3.org/2000/svg" xmlns:xlink="http://www.w3.org/1999/xlink" version="1.1" id="Layer_1" x="0px" y="0px" viewBox="0 0 512 512" style="enable-background:new 0 0 512 512;" xml:space="preserve">
<g>
	<g>
		<path d="M151.414,0c-11.422,0-20.682,9.26-20.682,20.682v78.439c0,17.43-14.181,31.611-31.611,31.611H20.682    C9.26,130.732,0,139.992,0,151.414s9.26,20.682,20.682,20.682h78.439c40.238,0,72.975-32.737,72.975-72.975V20.682    C172.096,9.26,162.836,0,151.414,0z"/>
	</g>
</g>
<g>
	<g>
		<path d="M491.318,130.732h-78.439c-17.431,0-31.612-14.181-31.612-31.611V20.682C381.267,9.26,372.008,0,360.585,0    s-20.682,9.26-20.682,20.682v78.439c0,40.238,32.738,72.975,72.976,72.975h78.439c11.423,0,20.682-9.26,20.682-20.682    S502.741,130.732,491.318,130.732z"/>
	</g>
</g>
<g>
	<g>
		<path d="M491.318,339.903h-78.439c-40.239,0-72.976,32.738-72.976,72.976v78.439c0,11.423,9.259,20.682,20.682,20.682    s20.682-9.259,20.682-20.682v-78.439c0-17.431,14.181-31.612,31.612-31.612h78.439c11.423,0,20.682-9.259,20.682-20.682    S502.741,339.903,491.318,339.903z"/>
	</g>
</g>
<g>
	<g>
		<path d="M99.121,339.903H20.682C9.26,339.903,0,349.162,0,360.585s9.26,20.682,20.682,20.682h78.439    c17.43,0,31.611,14.181,31.611,31.612v78.439c0,11.423,9.26,20.682,20.682,20.682s20.682-9.259,20.682-20.682v-78.439    C172.096,372.639,139.36,339.903,99.121,339.903z"/>
	</g>
</g>
<g>
</g>
<g>
</g>
<g>
</g>
<g>
</g>
<g>
</g>
<g>
</g>
<g>
</g>
<g>
</g>
<g>
</g>
<g>
</g>
<g>
</g>
<g>
</g>
<g>
</g>
<g>
</g>
<g>
</g>
</svg>
