<?xml version="1.0" encoding="iso-8859-1"?>
<!-- Generator: Adobe Illustrator 19.0.0, SVG Export Plug-In . SVG Version: 6.00 Build 0)  -->
<svg xmlns="http://www.w3.org/2000/svg" xmlns:xlink="http://www.w3.org/1999/xlink" version="1.1" id="Layer_1" x="0px" y="0px" viewBox="0 0 512 512" style="enable-background:new 0 0 512 512;" xml:space="preserve">
<g>
	<g>
		<path d="M203.708,287.611H46.829c-11.422,0-20.682,9.259-20.682,20.682s9.26,20.682,20.682,20.682h136.197v136.197    c0,11.423,9.26,20.682,20.682,20.682c11.423,0,20.682-9.26,20.682-20.682V308.293C224.39,296.87,215.13,287.611,203.708,287.611z"/>
	</g>
</g>
<g>
	<g>
		<path d="M465.172,183.025H328.976V46.828c0-11.422-9.259-20.682-20.682-20.682s-20.682,9.26-20.682,20.682v156.879    c0,11.422,9.259,20.682,20.682,20.682h156.879c11.423,0,20.682-9.26,20.682-20.682    C485.854,192.285,476.595,183.025,465.172,183.025z"/>
	</g>
</g>
<g>
	<g>
		<path d="M505.943,6.058c-8.077-8.077-21.172-8.077-29.249,0L293.669,189.083c-8.076,8.077-8.076,21.172,0,29.249    c4.038,4.038,9.332,6.058,14.625,6.058c5.293,0,10.586-2.019,14.625-6.058L505.943,35.307    C514.019,27.23,514.019,14.135,505.943,6.058z"/>
	</g>
</g>
<g>
	<g>
		<path d="M218.332,293.669c-8.076-8.077-21.172-8.077-29.249,0L6.058,476.693c-8.077,8.077-8.077,21.172,0,29.249    C10.096,509.982,15.39,512,20.683,512c5.293,0,10.586-2.019,14.625-6.058l183.025-183.025    C226.409,314.841,226.409,301.746,218.332,293.669z"/>
	</g>
</g>
<g>
</g>
<g>
</g>
<g>
</g>
<g>
</g>
<g>
</g>
<g>
</g>
<g>
</g>
<g>
</g>
<g>
</g>
<g>
</g>
<g>
</g>
<g>
</g>
<g>
</g>
<g>
</g>
<g>
</g>
</svg>
