<?xml version="1.0" encoding="iso-8859-1"?>
<!-- Generator: Adobe Illustrator 19.0.0, SVG Export Plug-In . SVG Version: 6.00 Build 0)  -->
<svg xmlns="http://www.w3.org/2000/svg" xmlns:xlink="http://www.w3.org/1999/xlink" version="1.1" id="Layer_1" x="0px" y="0px" viewBox="0 0 512 512" style="enable-background:new 0 0 512 512;" xml:space="preserve">
<g>
	<g>
		<path d="M256,0c-46.791,0-84.86,38.068-84.86,84.86V256c0,46.791,38.068,84.86,84.86,84.86s84.86-38.068,84.86-84.86V84.86    C340.86,38.068,302.791,0,256,0z M299.495,256c0,23.983-19.511,43.495-43.495,43.495c-23.983,0-43.495-19.511-43.495-43.495V84.86    c0-23.983,19.512-43.495,43.495-43.495c23.984,0,43.495,19.512,43.495,43.495V256z"/>
	</g>
</g>
<g>
	<g>
		<path d="M405.748,192.533c-11.423,0-20.682,9.26-20.682,20.682V256c0,71.167-57.898,129.065-129.065,129.065    S126.935,327.167,126.935,256v-42.785c0-11.422-9.26-20.682-20.682-20.682c-11.422,0-20.682,9.26-20.682,20.682V256    c0,93.975,76.454,170.43,170.43,170.43S426.43,349.975,426.43,256v-42.785C426.43,201.793,417.171,192.533,405.748,192.533z"/>
	</g>
</g>
<g>
	<g>
		<path d="M256,385.065c-11.422,0-20.682,9.259-20.682,20.682v85.57c0,11.423,9.26,20.682,20.682,20.682    c11.423,0,20.682-9.259,20.682-20.682v-85.57C276.682,394.325,267.423,385.065,256,385.065z"/>
	</g>
</g>
<g>
	<g>
		<path d="M341.57,470.636H170.43c-11.422,0-20.682,9.259-20.682,20.682c0,11.423,9.26,20.682,20.682,20.682h171.14    c11.423,0,20.682-9.259,20.682-20.682C362.252,479.895,352.993,470.636,341.57,470.636z"/>
	</g>
</g>
<g>
</g>
<g>
</g>
<g>
</g>
<g>
</g>
<g>
</g>
<g>
</g>
<g>
</g>
<g>
</g>
<g>
</g>
<g>
</g>
<g>
</g>
<g>
</g>
<g>
</g>
<g>
</g>
<g>
</g>
</svg>
