<?xml version="1.0" encoding="iso-8859-1"?>
<!-- Generator: Adobe Illustrator 19.0.0, SVG Export Plug-In . SVG Version: 6.00 Build 0)  -->
<svg xmlns="http://www.w3.org/2000/svg" xmlns:xlink="http://www.w3.org/1999/xlink" version="1.1" id="Layer_1" x="0px" y="0px" viewBox="0 0 512 512" style="enable-background:new 0 0 512 512;" xml:space="preserve">
<g>
	<g>
		<path d="M505.911,476.692L35.339,6.122c-8.077-8.077-21.173-8.077-29.249,0c-8.077,8.077-8.077,21.172,0,29.249l470.57,470.571    c4.038,4.039,9.332,6.058,14.625,6.058s10.586-2.019,14.625-6.059C513.987,497.864,513.987,484.769,505.911,476.692z"/>
	</g>
</g>
<g>
	<g>
		<path d="M315.978,286.763c-8.07-8.082-21.166-8.09-29.248-0.018c-8.2,8.19-19.1,12.706-30.691,12.717c-0.014,0-0.026,0-0.04,0    c-11.6,0-22.51-4.512-30.721-12.71c-8.221-8.207-12.754-19.123-12.764-30.72v-64.169c0-11.422-9.26-20.682-20.682-20.682    s-20.682,9.26-20.682,20.682v64.187c0.02,22.664,8.865,43.965,24.905,59.977c16.023,15.994,37.307,24.8,59.944,24.799    c0.025,0,0.052,0,0.076,0.001c22.617-0.02,43.886-8.833,59.887-24.816C324.042,307.94,324.05,294.845,315.978,286.763z"/>
	</g>
</g>
<g>
	<g>
		<path d="M316.059,24.912C300.048,8.87,278.749,0.023,256.085,0c-0.029,0-0.055,0-0.085,0c-40.191,0-75.156,28.572-83.153,67.966    C170.574,79.16,177.806,90.077,189,92.35c11.196,2.276,22.111-4.958,24.384-16.152c4.1-20.191,22.018-34.833,42.617-34.833    c0.014,0,0.029,0,0.043,0c11.615,0.012,22.531,4.546,30.737,12.768c8.205,8.222,12.717,19.147,12.705,30.783v114.22    c0,11.422,9.259,20.682,20.682,20.682c11.422,0,20.682-9.26,20.682-20.682V84.937C340.874,62.272,332.069,40.955,316.059,24.912z"/>
	</g>
</g>
<g>
	<g>
		<path d="M377.421,347.138c-8.159-7.993-21.253-7.86-29.247,0.3c-49.795,50.828-131.659,51.665-182.487,1.869    c-24.869-24.366-38.986-58.307-38.732-93.122c0-0.051,0-0.101,0-0.152v-42.779c0-11.422-9.26-20.682-20.682-20.682    s-20.682,9.26-20.682,20.682v42.707c-0.314,45.949,18.325,90.735,51.149,122.893c33.11,32.437,76.189,48.603,119.241,48.603    c44.224,0,88.421-17.061,121.741-51.071C385.714,368.226,385.58,355.131,377.421,347.138z"/>
	</g>
</g>
<g>
	<g>
		<path d="M405.727,192.571c-11.423,0-20.682,9.26-20.682,20.682v42.761c-0.007,7.583-0.689,15.213-2.028,22.676    c-2.017,11.243,5.464,21.993,16.706,24.009c1.235,0.221,2.464,0.328,3.676,0.328c9.822,0,18.538-7.026,20.333-17.034    c1.768-9.855,2.668-19.929,2.678-29.961v-42.779C426.409,201.831,417.15,192.571,405.727,192.571z"/>
	</g>
</g>
<g>
	<g>
		<path d="M255.999,385.077c-11.422,0-20.682,9.259-20.682,20.682v85.558c0,11.423,9.26,20.682,20.682,20.682    c11.423,0,20.682-9.259,20.682-20.682V405.76C276.682,394.337,267.422,385.077,255.999,385.077z"/>
	</g>
</g>
<g>
	<g>
		<path d="M341.558,470.636H170.441c-11.422,0-20.682,9.259-20.682,20.682c0,11.423,9.26,20.682,20.682,20.682h171.116    c11.423,0,20.682-9.259,20.682-20.682C362.24,479.895,352.981,470.636,341.558,470.636z"/>
	</g>
</g>
<g>
</g>
<g>
</g>
<g>
</g>
<g>
</g>
<g>
</g>
<g>
</g>
<g>
</g>
<g>
</g>
<g>
</g>
<g>
</g>
<g>
</g>
<g>
</g>
<g>
</g>
<g>
</g>
<g>
</g>
</svg>
