<?xml version="1.0" encoding="iso-8859-1"?>
<!-- Generator: Adobe Illustrator 19.0.0, SVG Export Plug-In . SVG Version: 6.00 Build 0)  -->
<svg xmlns="http://www.w3.org/2000/svg" xmlns:xlink="http://www.w3.org/1999/xlink" version="1.1" id="Layer_1" x="0px" y="0px" viewBox="0 0 512 512" style="enable-background:new 0 0 512 512;" xml:space="preserve">
<g>
	<g>
		<path d="M501.698,24.186c-6.375-3.701-14.241-3.727-20.642-0.069l-140.137,80.079l-161.24-80.62    c-6.186-3.093-13.507-2.89-19.511,0.541l-149.748,85.57C3.977,113.371,0,120.223,0,127.645v342.281    c0,7.372,3.925,14.187,10.301,17.889c6.378,3.699,14.242,3.726,20.643,0.068l140.137-80.078l161.24,80.62    c2.917,1.458,6.085,2.183,9.249,2.183c3.547,0,7.089-0.913,10.262-2.725l149.748-85.57C508.023,398.63,512,391.777,512,384.356    V42.075C512,34.702,508.075,27.887,501.698,24.186z M470.636,372.353l-129.716,74.124l-161.24-80.62    c-2.917-1.458-6.085-2.183-9.249-2.183c-3.547,0-7.089,0.912-10.262,2.725L41.364,434.286V139.647l129.716-74.123l161.24,80.619    c6.187,3.093,13.508,2.889,19.511-0.541l118.804-67.888V372.353z"/>
	</g>
</g>
<g>
	<g>
		<path d="M170.43,21.393c-11.422,0-20.682,9.26-20.682,20.682v342.281c0,11.423,9.26,20.682,20.682,20.682    s20.682-9.259,20.682-20.682V42.075C191.112,30.653,181.852,21.393,170.43,21.393z"/>
	</g>
</g>
<g>
	<g>
		<path d="M341.57,106.963c-11.423,0-20.682,9.26-20.682,20.682v342.281c0,11.423,9.259,20.682,20.682,20.682    s20.682-9.26,20.682-20.682V127.645C362.252,116.223,352.993,106.963,341.57,106.963z"/>
	</g>
</g>
<g>
</g>
<g>
</g>
<g>
</g>
<g>
</g>
<g>
</g>
<g>
</g>
<g>
</g>
<g>
</g>
<g>
</g>
<g>
</g>
<g>
</g>
<g>
</g>
<g>
</g>
<g>
</g>
<g>
</g>
</svg>
