<?xml version="1.0" encoding="iso-8859-1"?>
<!-- Generator: Adobe Illustrator 19.0.0, SVG Export Plug-In . SVG Version: 6.00 Build 0)  -->
<svg xmlns="http://www.w3.org/2000/svg" xmlns:xlink="http://www.w3.org/1999/xlink" version="1.1" id="Layer_1" x="0px" y="0px" viewBox="0 0 512 512" style="enable-background:new 0 0 512 512;" xml:space="preserve">
<g>
	<g>
		<path d="M437.019,74.981C388.667,26.629,324.38,0,256,0S123.333,26.63,74.981,74.981S0,187.62,0,256    s26.629,132.667,74.981,181.019C123.332,485.371,187.62,512,256,512s132.667-26.629,181.019-74.981    C485.371,388.667,512,324.38,512,256S485.371,123.332,437.019,74.981z M256,470.636C137.65,470.636,41.364,374.35,41.364,256    S137.65,41.364,256,41.364S470.636,137.65,470.636,256S374.35,470.636,256,470.636z"/>
	</g>
</g>
<g>
	<g>
		<path d="M256,141.191c-63.306,0-114.809,51.503-114.809,114.809S192.694,370.809,256,370.809S370.809,319.306,370.809,256    S319.306,141.191,256,141.191z M256,329.445c-40.498,0-73.445-32.946-73.445-73.445c0-40.498,32.947-73.445,73.445-73.445    c40.499,0,73.445,32.947,73.445,73.445C329.445,296.498,296.499,329.445,256,329.445z"/>
	</g>
</g>
<g>
	<g>
		<path d="M204.03,174.78l-99.775-99.775c-8.076-8.076-21.172-8.076-29.249,0c-8.077,8.077-8.077,21.172,0,29.249l99.775,99.776    c4.038,4.038,9.332,6.058,14.625,6.058c5.293,0,10.586-2.019,14.625-6.058C212.107,195.952,212.107,182.857,204.03,174.78z"/>
	</g>
</g>
<g>
	<g>
		<path d="M436.994,407.745L337.22,307.97c-8.077-8.077-21.172-8.077-29.249,0c-8.076,8.077-8.076,21.172,0,29.249l99.775,99.775    c4.038,4.039,9.332,6.058,14.625,6.058c5.293,0,10.587-2.019,14.625-6.058C445.07,428.917,445.07,415.822,436.994,407.745z"/>
	</g>
</g>
<g>
	<g>
		<path d="M436.994,75.006c-8.077-8.076-21.172-8.076-29.249,0L307.97,174.78c-8.076,8.077-8.076,21.172,0,29.249    c4.038,4.038,9.332,6.058,14.625,6.058c5.293,0,10.587-2.019,14.625-6.058l99.775-99.775    C445.07,96.178,445.07,83.083,436.994,75.006z"/>
	</g>
</g>
<g>
	<g>
		<path d="M420.287,91.713c-8.078-8.076-21.171-8.076-29.249,0L307.97,174.78c-8.076,8.077-8.076,21.172,0,29.249    c4.039,4.039,9.331,6.058,14.625,6.058c5.293,0,10.587-2.02,14.625-6.058l83.067-83.067    C428.363,112.885,428.363,99.79,420.287,91.713z"/>
	</g>
</g>
<g>
	<g>
		<path d="M204.03,307.97c-8.077-8.077-21.173-8.077-29.249,0l-99.775,99.775c-8.077,8.077-8.077,21.172,0,29.249    c4.038,4.039,9.332,6.058,14.625,6.058c5.293,0,10.586-2.019,14.624-6.058l99.776-99.775    C212.107,329.142,212.107,316.047,204.03,307.97z"/>
	</g>
</g>
<g>
</g>
<g>
</g>
<g>
</g>
<g>
</g>
<g>
</g>
<g>
</g>
<g>
</g>
<g>
</g>
<g>
</g>
<g>
</g>
<g>
</g>
<g>
</g>
<g>
</g>
<g>
</g>
<g>
</g>
</svg>
