<?xml version="1.0" encoding="iso-8859-1"?>
<!-- Generator: Adobe Illustrator 19.0.0, SVG Export Plug-In . SVG Version: 6.00 Build 0)  -->
<svg xmlns="http://www.w3.org/2000/svg" xmlns:xlink="http://www.w3.org/1999/xlink" version="1.1" id="Layer_1" x="0px" y="0px" viewBox="0 0 512 512" style="enable-background:new 0 0 512 512;" xml:space="preserve">
<g>
	<g>
		<path d="M439.026,0H72.975C32.737,0,0,32.737,0,72.975v366.05C0,479.264,32.737,512,72.975,512h366.05    C479.264,512,512,479.264,512,439.026V72.975C512,32.737,479.264,0,439.026,0z M470.636,439.025    c0,17.43-14.181,31.611-31.61,31.611H72.975c-17.43,0-31.611-14.181-31.611-31.61V72.975c0-17.43,14.181-31.611,31.611-31.611    h366.05c17.43,0,31.611,14.181,31.611,31.611V439.025z"/>
	</g>
</g>
<g>
	<g>
		<path d="M491.318,156.879H20.682C9.26,156.879,0,166.139,0,177.561c0,11.422,9.26,20.682,20.682,20.682h470.636    c11.423,0,20.682-9.26,20.682-20.682C512,166.139,502.741,156.879,491.318,156.879z"/>
	</g>
</g>
<g>
	<g>
		<path d="M177.561,156.879c-11.422,0-20.682,9.26-20.682,20.682v313.757c0,11.423,9.26,20.682,20.682,20.682    c11.422,0,20.682-9.259,20.682-20.682V177.561C198.243,166.139,188.983,156.879,177.561,156.879z"/>
	</g>
</g>
<g>
</g>
<g>
</g>
<g>
</g>
<g>
</g>
<g>
</g>
<g>
</g>
<g>
</g>
<g>
</g>
<g>
</g>
<g>
</g>
<g>
</g>
<g>
</g>
<g>
</g>
<g>
</g>
<g>
</g>
</svg>
