<?xml version="1.0" encoding="iso-8859-1"?>
<!-- Generator: Adobe Illustrator 19.0.0, SVG Export Plug-In . SVG Version: 6.00 Build 0)  -->
<svg xmlns="http://www.w3.org/2000/svg" xmlns:xlink="http://www.w3.org/1999/xlink" version="1.1" id="Layer_1" x="0px" y="0px" viewBox="0 0 512 512" style="enable-background:new 0 0 512 512;" xml:space="preserve">
<g>
	<g>
		<path d="M437.019,74.981C388.667,26.629,324.38,0,256,0S123.333,26.63,74.981,74.981S0,187.62,0,256    s26.629,132.667,74.981,181.019C123.332,485.371,187.62,512,256,512s132.667-26.629,181.019-74.981    C485.371,388.667,512,324.38,512,256S485.371,123.332,437.019,74.981z M256,470.636C137.65,470.636,41.364,374.35,41.364,256    S137.65,41.364,256,41.364S470.636,137.65,470.636,256S374.35,470.636,256,470.636z"/>
	</g>
</g>
<g>
	<g>
		<path d="M256,235.318c-11.422,0-20.682,9.26-20.682,20.682v94.127c0,11.423,9.26,20.682,20.682,20.682    c11.423,0,20.682-9.259,20.682-20.682V256C276.682,244.578,267.423,235.318,256,235.318z"/>
	</g>
</g>
<g>
	<g>
		<path d="M270.625,147.248c-3.852-3.852-9.183-6.058-14.625-6.058c-5.442,0-10.773,2.206-14.625,6.058    c-3.852,3.851-6.058,9.183-6.058,14.625c0,5.442,2.206,10.773,6.058,14.625c3.852,3.851,9.183,6.058,14.625,6.058    c5.442,0,10.773-2.206,14.625-6.058c3.852-3.852,6.058-9.183,6.058-14.625C276.682,156.431,274.475,151.1,270.625,147.248z"/>
	</g>
</g>
<g>
</g>
<g>
</g>
<g>
</g>
<g>
</g>
<g>
</g>
<g>
</g>
<g>
</g>
<g>
</g>
<g>
</g>
<g>
</g>
<g>
</g>
<g>
</g>
<g>
</g>
<g>
</g>
<g>
</g>
</svg>
