<?xml version="1.0" encoding="iso-8859-1"?>
<!-- Generator: Adobe Illustrator 19.0.0, SVG Export Plug-In . SVG Version: 6.00 Build 0)  -->
<svg xmlns="http://www.w3.org/2000/svg" xmlns:xlink="http://www.w3.org/1999/xlink" version="1.1" id="Layer_1" x="0px" y="0px" viewBox="0 0 512.001 512.001" style="enable-background:new 0 0 512.001 512.001;" xml:space="preserve">
<g>
	<g>
		<path d="M491.319,258.85H350.128c-6.915,0-13.373,3.456-17.209,9.211l-40.924,61.386h-71.99l-40.923-61.386    c-3.836-5.754-10.293-9.211-17.208-9.211H20.682C9.26,258.85,0,268.11,0,279.532s9.26,20.682,20.682,20.681h130.122l40.923,61.386    c3.836,5.754,10.293,9.21,17.209,9.21h94.127c6.916,0,13.373-3.455,17.208-9.21l40.924-61.386h130.122    c11.423,0,20.682-9.259,20.682-20.682S502.742,258.85,491.319,258.85z"/>
	</g>
</g>
<g>
	<g>
		<path d="M510.218,271.134L428.573,87.373c-10.849-24.492-35.156-40.309-61.925-40.309c-0.016,0-0.033,0-0.048,0H145.415    c-0.017,0-0.031,0-0.048,0c-26.778,0-51.082,15.81-61.934,40.294L1.781,271.134C0.607,273.778,0,276.639,0,279.532v117.659    c0,37.355,30.391,67.746,67.746,67.746h376.508c37.355,0,67.746-30.391,67.745-67.746V279.532    C511.999,276.639,511.392,273.778,510.218,271.134z M470.636,397.191c0,14.547-11.835,26.381-26.381,26.381H67.746    c-14.547,0-26.381-11.835-26.381-26.381V283.92l79.874-179.774c0.003-0.006,0.006-0.014,0.009-0.021    c4.225-9.537,13.691-15.696,24.135-15.696c0.005,0,0.013,0,0.018,0h221.213c0.006,0,0.013,0,0.019,0    c10.429,0,19.895,6.161,24.129,15.718l79.874,179.773V397.191z"/>
	</g>
</g>
<g>
</g>
<g>
</g>
<g>
</g>
<g>
</g>
<g>
</g>
<g>
</g>
<g>
</g>
<g>
</g>
<g>
</g>
<g>
</g>
<g>
</g>
<g>
</g>
<g>
</g>
<g>
</g>
<g>
</g>
</svg>
