<?xml version="1.0" encoding="iso-8859-1"?>
<!-- Generator: Adobe Illustrator 19.0.0, SVG Export Plug-In . SVG Version: 6.00 Build 0)  -->
<svg xmlns="http://www.w3.org/2000/svg" xmlns:xlink="http://www.w3.org/1999/xlink" version="1.1" id="Layer_1" x="0px" y="0px" viewBox="0 0 512 512" style="enable-background:new 0 0 512 512;" xml:space="preserve">
<g>
	<g>
		<path d="M437.019,74.981C388.667,26.629,324.38,0,256,0S123.333,26.63,74.981,74.981S0,187.62,0,256v156.879    c0,11.423,9.26,20.682,20.682,20.682c11.422,0,20.682-9.259,20.682-20.682V256C41.364,137.65,137.65,41.364,256,41.364    S470.636,137.65,470.636,256v156.879c0,11.423,9.259,20.682,20.682,20.682c11.423,0,20.682-9.259,20.682-20.682V256    C512,187.62,485.371,123.332,437.019,74.981z"/>
	</g>
</g>
<g>
	<g>
		<path d="M491.318,287.61h-78.439c-40.239,0-72.976,32.737-72.976,72.975v78.44c0,40.239,32.738,72.975,72.976,72.975h26.146    C479.264,512,512,479.264,512,439.025V308.292C512,296.869,502.741,287.61,491.318,287.61z M470.636,439.025    c0,17.43-14.181,31.611-31.611,31.612h-26.146c-17.431,0-31.612-14.181-31.612-31.611v-78.44c0-17.43,14.181-31.611,31.612-31.611    h57.757V439.025z"/>
	</g>
</g>
<g>
	<g>
		<path d="M99.121,287.611H20.682C9.26,287.611,0,296.87,0,308.293v130.732C0,479.264,32.737,512,72.975,512h26.146    c40.238,0,72.975-32.736,72.975-72.974v-78.44C172.096,320.347,139.36,287.611,99.121,287.611z M130.733,439.025    c0,17.43-14.181,31.611-31.611,31.611H72.975c-17.43,0-31.611-14.181-31.611-31.61V328.975v-0.001h57.758    c17.43,0,31.611,14.181,31.611,31.611V439.025z"/>
	</g>
</g>
<g>
</g>
<g>
</g>
<g>
</g>
<g>
</g>
<g>
</g>
<g>
</g>
<g>
</g>
<g>
</g>
<g>
</g>
<g>
</g>
<g>
</g>
<g>
</g>
<g>
</g>
<g>
</g>
<g>
</g>
</svg>
