<?xml version="1.0" encoding="iso-8859-1"?>
<!-- Generator: Adobe Illustrator 19.0.0, SVG Export Plug-In . SVG Version: 6.00 Build 0)  -->
<svg xmlns="http://www.w3.org/2000/svg" xmlns:xlink="http://www.w3.org/1999/xlink" version="1.1" id="Layer_1" x="0px" y="0px" viewBox="0 0 511.999 511.999" style="enable-background:new 0 0 511.999 511.999;" xml:space="preserve">
<g>
	<g>
		<path d="M465.169,156.879H46.83c-11.422,0-20.682,9.26-20.682,20.682s9.26,20.682,20.682,20.682h418.339    c11.423,0,20.682-9.26,20.682-20.682S476.592,156.879,465.169,156.879z"/>
	</g>
</g>
<g>
	<g>
		<path d="M465.169,313.756H46.83c-11.422,0-20.682,9.259-20.682,20.682s9.26,20.682,20.682,20.682h418.339    c11.423,0,20.682-9.259,20.682-20.682S476.592,313.756,465.169,313.756z"/>
	</g>
</g>
<g>
	<g>
		<path d="M205.991,0.129c-11.35-1.262-21.578,6.919-22.839,18.271l-52.292,470.631c-1.262,11.353,6.919,21.578,18.271,22.839    c0.777,0.086,1.547,0.129,2.31,0.129c10.399,0,19.355-7.823,20.529-18.4l52.292-470.631    C225.524,11.616,217.343,1.39,205.991,0.129z"/>
	</g>
</g>
<g>
	<g>
		<path d="M362.867,0.129C351.52-1.136,341.289,7.048,340.028,18.4l-52.292,470.631c-1.261,11.353,6.919,21.578,18.272,22.839    c0.776,0.086,1.547,0.129,2.31,0.129c10.399,0,19.355-7.823,20.529-18.4l52.292-470.631    C382.401,11.616,374.221,1.39,362.867,0.129z"/>
	</g>
</g>
<g>
</g>
<g>
</g>
<g>
</g>
<g>
</g>
<g>
</g>
<g>
</g>
<g>
</g>
<g>
</g>
<g>
</g>
<g>
</g>
<g>
</g>
<g>
</g>
<g>
</g>
<g>
</g>
<g>
</g>
</svg>
