<?xml version="1.0" encoding="iso-8859-1"?>
<!-- Generator: Adobe Illustrator 19.0.0, SVG Export Plug-In . SVG Version: 6.00 Build 0)  -->
<svg xmlns="http://www.w3.org/2000/svg" xmlns:xlink="http://www.w3.org/1999/xlink" version="1.1" id="Layer_1" x="0px" y="0px" viewBox="0 0 512 512" style="enable-background:new 0 0 512 512;" xml:space="preserve">
<g>
	<g>
		<path d="M437.019,74.981C388.667,26.629,324.38,0,256,0S123.333,26.63,74.981,74.981S0,187.62,0,256    s26.629,132.667,74.981,181.019C123.332,485.371,187.62,512,256,512s132.667-26.629,181.019-74.981    C485.371,388.667,512,324.38,512,256S485.371,123.332,437.019,74.981z M256,470.636C137.65,470.636,41.364,374.35,41.364,256    S137.65,41.364,256,41.364S470.636,137.65,470.636,256S374.35,470.636,256,470.636z"/>
	</g>
</g>
<g>
	<g>
		<path d="M491.318,235.318H20.682C9.26,235.318,0,244.578,0,256c0,11.423,9.26,20.682,20.682,20.682h470.636    c11.423,0,20.682-9.259,20.682-20.682C512,244.578,502.741,235.318,491.318,235.318z"/>
	</g>
</g>
<g>
	<g>
		<path d="M271.27,6.734C267.352,2.444,261.809,0,256,0c-5.81,0-11.352,2.444-15.271,6.733    c-62.263,68.165-97.611,156.536-99.534,248.836c-0.005,0.288-0.005,0.575,0,0.862c1.923,92.3,37.271,180.672,99.534,248.836    c3.919,4.29,9.46,6.733,15.271,6.733c5.809,0,11.352-2.443,15.27-6.732c62.263-68.163,97.612-156.535,99.535-248.836    c0.006-0.288,0.006-0.575,0-0.862C368.882,163.269,333.533,74.898,271.27,6.734z M256,459.441    c-45.896-57.827-71.799-129.2-73.44-203.441c1.643-74.241,27.544-145.614,73.44-203.441    c45.897,57.828,71.799,129.201,73.441,203.441C327.798,330.241,301.897,401.615,256,459.441z"/>
	</g>
</g>
<g>
</g>
<g>
</g>
<g>
</g>
<g>
</g>
<g>
</g>
<g>
</g>
<g>
</g>
<g>
</g>
<g>
</g>
<g>
</g>
<g>
</g>
<g>
</g>
<g>
</g>
<g>
</g>
<g>
</g>
</svg>
