<?xml version="1.0" encoding="iso-8859-1"?>
<!-- Generator: Adobe Illustrator 19.0.0, SVG Export Plug-In . SVG Version: 6.00 Build 0)  -->
<svg xmlns="http://www.w3.org/2000/svg" xmlns:xlink="http://www.w3.org/1999/xlink" version="1.1" id="Layer_1" x="0px" y="0px" viewBox="0 0 512 512" style="enable-background:new 0 0 512 512;" xml:space="preserve">
<g>
	<g>
		<path d="M444.254,94.127H243.536l-40.923-61.386c-3.836-5.753-10.293-9.21-17.209-9.21H67.746C30.391,23.532,0,53.923,0,91.278    v329.445c0,37.356,30.391,67.746,67.746,67.746h376.508c37.355,0,67.746-30.39,67.746-67.746v-258.85    C512,124.518,481.61,94.127,444.254,94.127z M470.636,420.722c0,14.547-11.835,26.381-26.381,26.381H67.746    c-14.547,0-26.381-11.835-26.381-26.381V91.278c0-14.547,11.835-26.381,26.381-26.381h106.591l40.923,61.386    c3.836,5.753,10.293,9.21,17.208,9.21h211.786c14.547,0,26.381,11.835,26.381,26.381V420.722z"/>
	</g>
</g>
<g>
</g>
<g>
</g>
<g>
</g>
<g>
</g>
<g>
</g>
<g>
</g>
<g>
</g>
<g>
</g>
<g>
</g>
<g>
</g>
<g>
</g>
<g>
</g>
<g>
</g>
<g>
</g>
<g>
</g>
</svg>
