<?xml version="1.0" encoding="iso-8859-1"?>
<!-- Generator: Adobe Illustrator 19.0.0, SVG Export Plug-In . SVG Version: 6.00 Build 0)  -->
<svg xmlns="http://www.w3.org/2000/svg" xmlns:xlink="http://www.w3.org/1999/xlink" version="1.1" id="Layer_1" x="0px" y="0px" viewBox="0 0 512 512" style="enable-background:new 0 0 512 512;" xml:space="preserve">
<g>
	<g>
		<path d="M452.169,25.106c-7.73-3.202-16.624-1.432-22.54,4.483c-0.175,0.175-21.117,17.474-79.502,17.474    c-31.315,0-58.094-10.712-86.447-22.053C232.94,12.715,201.154,0,161.873,0C84.931,0,56.15,26.562,53.121,29.589    c-3.878,3.879-6.058,9.14-6.058,14.625v282.38c0,8.599,4.883,16.765,12.924,19.809c7.938,3.005,16.469,1.304,22.164-4.941    c2.457-1.946,24.12-17.717,79.721-17.717c31.315,0,58.094,10.712,86.445,22.052c30.741,12.297,62.528,25.012,101.809,25.012    c76.942,0,105.723-26.561,108.752-29.59c3.879-3.878,6.058-9.139,6.058-14.624V44.214    C464.936,35.849,459.896,28.307,452.169,25.106z M423.571,315.637c-10.05,5.288-32.582,13.807-73.444,13.807    c-31.315,0-58.094-10.712-86.447-22.053c-30.74-12.296-62.526-25.011-101.807-25.011c-32.521,0-56.44,4.746-73.445,10.453V55.172    c10.05-5.289,32.583-13.807,73.445-13.807c31.315,0,58.094,10.712,86.445,22.053c30.741,12.295,62.528,25.011,101.809,25.011    c32.521,0,56.439-4.745,73.444-10.453V315.637z"/>
	</g>
</g>
<g>
	<g>
		<path d="M67.746,305.913c-11.422,0-20.682,9.259-20.682,20.682v164.722c0,11.423,9.26,20.682,20.682,20.682    s20.682-9.259,20.682-20.682V326.595C88.428,315.172,79.168,305.913,67.746,305.913z"/>
	</g>
</g>
<g>
</g>
<g>
</g>
<g>
</g>
<g>
</g>
<g>
</g>
<g>
</g>
<g>
</g>
<g>
</g>
<g>
</g>
<g>
</g>
<g>
</g>
<g>
</g>
<g>
</g>
<g>
</g>
<g>
</g>
</svg>
