<?xml version="1.0" encoding="iso-8859-1"?>
<!-- Generator: Adobe Illustrator 19.0.0, SVG Export Plug-In . SVG Version: 6.00 Build 0)  -->
<svg xmlns="http://www.w3.org/2000/svg" xmlns:xlink="http://www.w3.org/1999/xlink" version="1.1" id="Layer_1" x="0px" y="0px" viewBox="0 0 512 512" style="enable-background:new 0 0 512 512;" xml:space="preserve">
<g>
	<g>
		<path d="M458.879,170.78L294.156,6.058C290.277,2.179,285.018,0,279.532,0H114.809C77.454,0,47.064,30.391,47.064,67.746v376.508    c0,37.355,30.391,67.746,67.746,67.746h282.381c37.355,0,67.746-30.391,67.746-67.746v-258.85    C464.936,179.92,462.758,174.659,458.879,170.78z M423.572,444.254c0,14.547-11.835,26.381-26.381,26.381H114.809    c-14.547,0-26.381-11.835-26.381-26.381V67.746c0-14.547,11.835-26.381,26.381-26.381h156.155l152.607,152.607V444.254z"/>
	</g>
</g>
<g>
	<g>
		<path d="M444.254,164.722h-144.04V20.682C300.214,9.26,290.955,0,279.532,0S258.85,9.26,258.85,20.682v164.722    c0,11.422,9.259,20.682,20.682,20.682h164.722c11.423,0,20.682-9.26,20.682-20.682S455.677,164.722,444.254,164.722z"/>
	</g>
</g>
<g>
</g>
<g>
</g>
<g>
</g>
<g>
</g>
<g>
</g>
<g>
</g>
<g>
</g>
<g>
</g>
<g>
</g>
<g>
</g>
<g>
</g>
<g>
</g>
<g>
</g>
<g>
</g>
<g>
</g>
</svg>
