<?xml version="1.0" encoding="iso-8859-1"?>
<!-- Generator: Adobe Illustrator 19.0.0, SVG Export Plug-In . SVG Version: 6.00 Build 0)  -->
<svg xmlns="http://www.w3.org/2000/svg" xmlns:xlink="http://www.w3.org/1999/xlink" version="1.1" id="Layer_1" x="0px" y="0px" viewBox="0 0 512 512" style="enable-background:new 0 0 512 512;" xml:space="preserve">
<g>
	<g>
		<path d="M464.465,47.417C433.887,16.84,393.234,0,349.99,0c-43.243,0-83.898,16.84-114.476,47.417L76.741,206.19    c-3.878,3.879-6.058,9.14-6.058,14.625v199.937c0,11.423,9.26,20.682,20.682,20.682h199.936c5.496,0,10.766-2.187,14.647-6.079    l158.516-158.987c30.578-30.578,47.417-71.233,47.417-114.476C511.882,118.65,495.043,77.995,464.465,47.417z M435.215,247.118    c-0.006,0.007-0.014,0.015-0.021,0.022L282.717,400.07H112.048V229.382L264.764,76.667c22.765-22.765,53.033-35.302,85.226-35.302    s62.461,12.537,85.225,35.301c22.764,22.764,35.302,53.032,35.302,85.226C470.517,194.086,457.98,224.353,435.215,247.118z"/>
	</g>
</g>
<g>
	<g>
		<path d="M364.732,147.386c-8.077-8.077-21.172-8.077-29.249,0L6.175,476.693c-8.077,8.077-8.077,21.172,0,29.249    C10.214,509.981,15.506,512,20.8,512c5.293,0,10.587-2.02,14.625-6.058l329.307-329.308    C372.808,168.558,372.808,155.463,364.732,147.386z"/>
	</g>
</g>
<g>
	<g>
		<path d="M373.629,305.982H185.453c-11.422,0-20.682,9.259-20.682,20.682c0,11.423,9.26,20.682,20.682,20.682H373.63    c11.423,0,20.681-9.259,20.681-20.682C394.311,315.241,385.052,305.982,373.629,305.982z"/>
	</g>
</g>
<g>
</g>
<g>
</g>
<g>
</g>
<g>
</g>
<g>
</g>
<g>
</g>
<g>
</g>
<g>
</g>
<g>
</g>
<g>
</g>
<g>
</g>
<g>
</g>
<g>
</g>
<g>
</g>
<g>
</g>
</svg>
