<?xml version="1.0" encoding="iso-8859-1"?>
<!-- Generator: Adobe Illustrator 19.0.0, SVG Export Plug-In . SVG Version: 6.00 Build 0)  -->
<svg xmlns="http://www.w3.org/2000/svg" xmlns:xlink="http://www.w3.org/1999/xlink" version="1.1" id="Layer_1" x="0px" y="0px" viewBox="0 0 512 512" style="enable-background:new 0 0 512 512;" xml:space="preserve">
<g>
	<g>
		<path d="M433.089,189.644c-16.383-30.717-39.094-62.497-67.503-94.458c-47.896-53.883-95.187-89.557-97.176-91.05    c-7.354-5.515-17.465-5.515-24.819,0c-1.99,1.493-49.28,37.166-97.176,91.05c-28.409,31.961-51.121,63.741-67.503,94.458    c-21.133,39.623-31.848,77.784-31.848,113.419c0,55.809,21.733,108.277,61.196,147.74C147.723,490.266,200.191,512,256,512    s108.277-21.734,147.74-61.196c39.463-39.463,61.196-91.931,61.196-147.74C464.936,267.429,454.221,229.268,433.089,189.644z     M256,470.636c-92.4,0-167.572-75.172-167.572-167.572C88.428,194.122,215.281,80.728,256,47.143    c40.733,33.598,167.572,146.987,167.572,255.921C423.572,395.464,348.4,470.636,256,470.636z"/>
	</g>
</g>
<g>
</g>
<g>
</g>
<g>
</g>
<g>
</g>
<g>
</g>
<g>
</g>
<g>
</g>
<g>
</g>
<g>
</g>
<g>
</g>
<g>
</g>
<g>
</g>
<g>
</g>
<g>
</g>
<g>
</g>
</svg>
