<?xml version="1.0" encoding="iso-8859-1"?>
<!-- Generator: Adobe Illustrator 19.0.0, SVG Export Plug-In . SVG Version: 6.00 Build 0)  -->
<svg xmlns="http://www.w3.org/2000/svg" xmlns:xlink="http://www.w3.org/1999/xlink" version="1.1" id="Layer_1" x="0px" y="0px" viewBox="0 0 512 512" style="enable-background:new 0 0 512 512;" xml:space="preserve">
<g>
	<g>
		<path d="M356.236,348.413c-8.078-8.078-21.175-8.078-29.253,0l-70.896,70.896l-70.896-70.896c-8.078-8.078-21.176-8.078-29.253,0    c-8.078,8.078-8.078,21.175,0,29.253l85.522,85.522c4.039,4.04,9.333,6.058,14.627,6.058c5.294,0,10.588-2.019,14.627-6.058    l85.522-85.522C364.313,369.588,364.313,356.491,356.236,348.413z"/>
	</g>
</g>
<g>
	<g>
		<path d="M256.087,235.45c-11.424,0-20.685,9.261-20.685,20.685v192.427c0,11.425,9.261,20.685,20.685,20.685    c11.425,0,20.685-9.26,20.685-20.685V256.135C276.772,244.711,267.511,235.45,256.087,235.45z"/>
	</g>
</g>
<g>
	<g>
		<path d="M488.823,225.506c-23.87-33.943-62.879-54.198-104.352-54.198c-0.032,0-0.066,0-0.099,0h-11.594    C340.376,78.287,241.208,23.873,144.099,48.791C41.696,75.068-20.237,179.756,6.038,282.16    c7.518,29.298,22.086,56.756,42.131,79.408c7.571,8.554,20.644,9.351,29.199,1.782c8.554-7.572,9.352-20.644,1.782-29.199    c-15.72-17.763-27.144-39.296-33.04-62.272C25.504,191.57,74.074,109.469,154.382,88.863    c80.309-20.607,162.407,27.964,183.014,108.271c2.347,9.147,10.593,15.544,20.036,15.544h26.956c0.024,0,0.044,0,0.068,0    c28.034,0,54.398,13.688,70.526,36.624c27.346,38.889,17.956,92.775-20.933,120.121c-9.345,6.572-11.593,19.474-5.022,28.819    c4.028,5.728,10.432,8.789,16.939,8.789c4.11,0,8.263-1.223,11.881-3.766C515.393,362.798,529.29,283.055,488.823,225.506z"/>
	</g>
</g>
<g>
</g>
<g>
</g>
<g>
</g>
<g>
</g>
<g>
</g>
<g>
</g>
<g>
</g>
<g>
</g>
<g>
</g>
<g>
</g>
<g>
</g>
<g>
</g>
<g>
</g>
<g>
</g>
<g>
</g>
</svg>
