<?xml version="1.0" encoding="iso-8859-1"?>
<!-- Generator: Adobe Illustrator 19.0.0, SVG Export Plug-In . SVG Version: 6.00 Build 0)  -->
<svg xmlns="http://www.w3.org/2000/svg" xmlns:xlink="http://www.w3.org/1999/xlink" version="1.1" id="Layer_1" x="0px" y="0px" viewBox="0 0 512 512" style="enable-background:new 0 0 512 512;" xml:space="preserve">
<g>
	<g>
		<path d="M384.356,64.178H127.645c-34.995,0-63.467,28.471-63.467,63.467v256.711c0,34.995,28.471,63.467,63.467,63.467h256.711    c34.995,0,63.467-28.472,63.467-63.467V127.645C447.823,92.65,419.351,64.178,384.356,64.178z M406.458,384.355    c0,12.188-9.915,22.102-22.102,22.102H127.645c-12.187,0-22.102-9.915-22.102-22.102V127.644c0-12.187,9.915-22.102,22.102-22.102    v0.001h256.711c12.188,0,22.102,9.915,22.102,22.102V384.355z"/>
	</g>
</g>
<g>
	<g>
		<path d="M320.178,171.14H191.823c-11.422,0-20.682,9.26-20.682,20.682v128.355c0,11.423,9.26,20.682,20.682,20.682h128.355    c11.423,0,20.682-9.259,20.683-20.681V191.823C340.861,180.401,331.601,171.14,320.178,171.14z M299.496,299.495h-86.991v-86.991    h86.991V299.495z"/>
	</g>
</g>
<g>
	<g>
		<path d="M191.823,0c-11.422,0-20.682,9.26-20.682,20.682V84.86c0,11.422,9.26,20.682,20.682,20.682    c11.422,0,20.682-9.259,20.682-20.682V20.682C212.505,9.26,203.245,0,191.823,0z"/>
	</g>
</g>
<g>
	<g>
		<path d="M320.177,0c-11.423,0-20.682,9.26-20.682,20.682V84.86c0,11.422,9.259,20.682,20.682,20.682s20.682-9.259,20.682-20.682    V20.682C340.86,9.26,331.6,0,320.177,0z"/>
	</g>
</g>
<g>
	<g>
		<path d="M191.823,406.458c-11.422,0-20.682,9.259-20.682,20.682v64.177c0,11.423,9.26,20.682,20.682,20.682    c11.422,0,20.682-9.259,20.682-20.682V427.14C212.505,415.717,203.245,406.458,191.823,406.458z"/>
	</g>
</g>
<g>
	<g>
		<path d="M320.177,406.458c-11.423,0-20.682,9.259-20.682,20.682v64.177c0,11.423,9.259,20.682,20.682,20.682    s20.682-9.259,20.682-20.682V427.14C340.86,415.717,331.6,406.458,320.177,406.458z"/>
	</g>
</g>
<g>
	<g>
		<path d="M491.318,171.14H427.14c-11.423,0-20.682,9.26-20.682,20.682c0,11.422,9.259,20.682,20.682,20.682h64.177    c11.423,0,20.682-9.26,20.682-20.682C512,180.401,502.741,171.14,491.318,171.14z"/>
	</g>
</g>
<g>
	<g>
		<path d="M491.318,278.103H427.14c-11.423,0-20.682,9.259-20.682,20.682c0,11.423,9.259,20.682,20.682,20.682h64.177    c11.423,0,20.682-9.259,20.682-20.682C512,287.363,502.741,278.103,491.318,278.103z"/>
	</g>
</g>
<g>
	<g>
		<path d="M84.86,171.14H20.682C9.26,171.14,0,180.401,0,191.823c0,11.422,9.26,20.682,20.682,20.682H84.86    c11.423,0,20.682-9.26,20.682-20.682C105.542,180.401,96.282,171.14,84.86,171.14z"/>
	</g>
</g>
<g>
	<g>
		<path d="M84.86,278.103H20.682C9.26,278.103,0,287.363,0,298.786c0,11.423,9.26,20.682,20.682,20.682H84.86    c11.423,0,20.682-9.259,20.682-20.682C105.542,287.363,96.282,278.103,84.86,278.103z"/>
	</g>
</g>
<g>
</g>
<g>
</g>
<g>
</g>
<g>
</g>
<g>
</g>
<g>
</g>
<g>
</g>
<g>
</g>
<g>
</g>
<g>
</g>
<g>
</g>
<g>
</g>
<g>
</g>
<g>
</g>
<g>
</g>
</svg>
