<?xml version="1.0" encoding="iso-8859-1"?>
<!-- Generator: Adobe Illustrator 19.0.0, SVG Export Plug-In . SVG Version: 6.00 Build 0)  -->
<svg xmlns="http://www.w3.org/2000/svg" xmlns:xlink="http://www.w3.org/1999/xlink" version="1.1" id="Layer_1" x="0px" y="0px" viewBox="0 0 512 512" style="enable-background:new 0 0 512 512;" xml:space="preserve">
<g>
	<g>
		<path d="M511.967,228.715c-3.292-59.667-28.376-115.797-70.63-158.052c-42.254-42.255-98.385-67.338-158.051-70.63    c-0.38-0.021-0.759-0.031-1.139-0.031h-13.02C268.92,0,268.719,0,268.512,0c-37.379,0-74.754,8.901-108.04,25.713    C120.096,45.892,86.205,76.85,62.464,115.24c-23.741,38.39-36.299,82.54-36.317,127.632c-0.09,34.66,7.476,69.33,21.941,100.826    L1.063,484.777c-2.477,7.432-0.543,15.626,4.996,21.165c3.942,3.942,9.228,6.058,14.627,6.058    c2.188-0.001,4.395-0.348,6.537-1.062l141.077-47.027c31.312,14.38,65.753,21.942,100.167,21.942c0.202,0,0.41,0,0.612-0.001    c45.137-0.017,89.287-12.576,127.677-36.317c38.391-23.74,69.349-57.631,89.489-97.929c16.94-33.538,25.845-71.125,25.753-108.698    v-13.055C511.998,229.474,511.987,229.094,511.967,228.715z M470.635,242.927c0,0.018,0,0.036,0,0.054    c0.081,31.102-7.288,62.217-21.35,90.057c-34.344,68.716-103.4,111.422-180.266,111.451c-0.169,0.001-0.337,0.001-0.506,0.001    c-30.933,0-61.86-7.366-89.471-21.312c-4.921-2.485-10.632-2.903-15.865-1.16L53.385,458.616l36.597-109.792    c1.744-5.232,1.326-10.943-1.16-15.866c-14.023-27.762-21.392-58.875-21.311-90.024c0.03-76.821,42.736-145.877,111.53-180.26    c27.611-13.947,58.535-21.311,89.521-21.311c0.169,0,0.341,0,0.51,0.001h12.49c102.018,5.909,183.162,87.055,189.072,189.074    V242.927z"/>
	</g>
</g>
<g>
</g>
<g>
</g>
<g>
</g>
<g>
</g>
<g>
</g>
<g>
</g>
<g>
</g>
<g>
</g>
<g>
</g>
<g>
</g>
<g>
</g>
<g>
</g>
<g>
</g>
<g>
</g>
<g>
</g>
</svg>
