<?xml version="1.0" encoding="iso-8859-1"?>
<!-- Generator: Adobe Illustrator 19.0.0, SVG Export Plug-In . SVG Version: 6.00 Build 0)  -->
<svg xmlns="http://www.w3.org/2000/svg" xmlns:xlink="http://www.w3.org/1999/xlink" version="1.1" id="Layer_1" x="0px" y="0px" viewBox="0 0 512 512" style="enable-background:new 0 0 512 512;" xml:space="preserve">
<g>
	<g>
		<path d="M384.389,192.556h-11.625C340.229,99.544,240.952,45.263,143.848,70.332C41.465,96.767-20.323,201.569,6.111,303.953    c21.871,84.702,98.21,143.826,185.662,143.826c0.048,0,0.097,0,0.145,0h192.471c70.365,0,127.611-57.246,127.611-127.611    S454.754,192.556,384.389,192.556z M384.389,406.413H191.903c-0.042,0-0.073,0-0.114,0c-68.594,0-128.473-46.375-145.624-112.801    C25.431,213.313,73.891,131.118,154.19,110.384c12.561-3.243,25.167-4.793,37.579-4.793c66.929,0,128.159,45.083,145.649,112.819    c2.357,9.132,10.594,15.512,20.026,15.512h26.946c47.555,0,86.245,38.69,86.245,86.245S431.944,406.413,384.389,406.413z"/>
	</g>
</g>
<g>
</g>
<g>
</g>
<g>
</g>
<g>
</g>
<g>
</g>
<g>
</g>
<g>
</g>
<g>
</g>
<g>
</g>
<g>
</g>
<g>
</g>
<g>
</g>
<g>
</g>
<g>
</g>
<g>
</g>
</svg>
