<?xml version="1.0" encoding="iso-8859-1"?>
<!-- Generator: Adobe Illustrator 19.0.0, SVG Export Plug-In . SVG Version: 6.00 Build 0)  -->
<svg xmlns="http://www.w3.org/2000/svg" xmlns:xlink="http://www.w3.org/1999/xlink" version="1.1" id="Layer_1" x="0px" y="0px" viewBox="0 0 511.999 511.999" style="enable-background:new 0 0 511.999 511.999;" xml:space="preserve">
<g>
	<g>
		<path d="M434.528,202.843c-15.759-6.674-32.42-10.057-49.507-10.057c-0.05,0-0.101,0-0.151,0h-11.419    c-24.431-70.405-88.262-120.857-163.459-127.5c-11.374-1.007-21.42,7.406-22.426,18.786c-1.005,11.381,7.406,21.421,18.786,22.426    c63.155,5.58,116.072,50.615,131.677,112.066c2.33,9.173,10.586,15.594,20.05,15.594h26.816    c11.557,0.009,22.843,2.267,33.498,6.78c43.478,18.414,63.868,68.768,45.454,112.247c-4.455,10.519,0.462,22.659,10.981,27.115    c2.634,1.115,5.367,1.643,8.058,1.643c8.057,0,15.717-4.737,19.057-12.625C529.253,304.836,499.011,230.155,434.528,202.843z"/>
	</g>
</g>
<g>
	<g>
		<path d="M440.464,412.669c-3.897-10.739-15.765-16.288-26.502-12.387c-9.361,3.397-19.156,5.125-29.091,5.137H193.502    c-0.111,0-0.222,0.001-0.334,0.003c-55.384,0.885-106.382-28.65-133.17-77.098c-39.868-72.103-13.643-163.198,58.46-203.065    c9.998-5.528,13.621-18.114,8.093-28.113c-5.528-9.997-18.114-13.622-28.113-8.093C6.372,139.961-27.114,256.278,23.793,348.345    c33.704,60.955,97.449,98.473,166.929,98.469c0.976,0,1.963-0.007,2.942-0.023h191.232c14.771-0.017,29.299-2.582,43.182-7.621    C438.816,435.274,444.362,423.408,440.464,412.669z"/>
	</g>
</g>
<g>
	<g>
		<path d="M505.816,475.269L38.022,7.475c-8.079-8.078-21.177-8.078-29.254,0c-8.079,8.079-8.079,21.176,0,29.255l467.794,467.794    c4.039,4.04,9.333,6.059,14.627,6.059s10.587-2.019,14.627-6.059C513.893,496.445,513.893,483.348,505.816,475.269z"/>
	</g>
</g>
<g>
</g>
<g>
</g>
<g>
</g>
<g>
</g>
<g>
</g>
<g>
</g>
<g>
</g>
<g>
</g>
<g>
</g>
<g>
</g>
<g>
</g>
<g>
</g>
<g>
</g>
<g>
</g>
<g>
</g>
</svg>
