<?xml version="1.0" encoding="iso-8859-1"?>
<!-- Generator: Adobe Illustrator 19.0.0, SVG Export Plug-In . SVG Version: 6.00 Build 0)  -->
<svg xmlns="http://www.w3.org/2000/svg" xmlns:xlink="http://www.w3.org/1999/xlink" version="1.1" id="Layer_1" x="0px" y="0px" viewBox="0 0 512 512" style="enable-background:new 0 0 512 512;" xml:space="preserve">
<g>
	<g>
		<path d="M444.254,117.659H67.746C30.391,117.659,0,148.049,0,185.405v235.318c0,37.356,30.391,67.746,67.746,67.746h376.508    c37.355,0,67.746-30.39,67.746-67.746V185.405C512,148.05,481.61,117.659,444.254,117.659z M470.636,420.722    c0,14.547-11.835,26.381-26.381,26.381H67.746c-14.547,0-26.381-11.835-26.381-26.381V185.405    c0-14.547,11.835-26.381,26.381-26.381v0h376.508c14.547,0,26.381,11.835,26.381,26.381V420.722z"/>
	</g>
</g>
<g>
	<g>
		<path d="M303.064,23.532h-94.127c-37.355,0-67.746,30.391-67.746,67.746v376.508c0,11.423,9.26,20.682,20.682,20.682    c11.422,0,20.682-9.259,20.682-20.682V91.278c0-14.547,11.835-26.381,26.381-26.381h94.127c14.547,0,26.381,11.835,26.381,26.381    v376.508c0,11.423,9.259,20.682,20.682,20.682c11.423,0,20.682-9.259,20.682-20.682V91.278    C370.809,53.923,340.419,23.532,303.064,23.532z"/>
	</g>
</g>
<g>
</g>
<g>
</g>
<g>
</g>
<g>
</g>
<g>
</g>
<g>
</g>
<g>
</g>
<g>
</g>
<g>
</g>
<g>
</g>
<g>
</g>
<g>
</g>
<g>
</g>
<g>
</g>
<g>
</g>
</svg>
