<?xml version="1.0" encoding="iso-8859-1"?>
<!-- Generator: Adobe Illustrator 19.0.0, SVG Export Plug-In . SVG Version: 6.00 Build 0)  -->
<svg xmlns="http://www.w3.org/2000/svg" xmlns:xlink="http://www.w3.org/1999/xlink" version="1.1" id="Layer_1" x="0px" y="0px" viewBox="0 0 512 512" style="enable-background:new 0 0 512 512;" xml:space="preserve">
<g>
	<g>
		<path d="M285.248,256l103.036-103.035c8.076-8.076,8.076-21.171,0-29.248L270.625,6.058c-5.915-5.914-14.811-7.684-22.54-4.483    c-7.729,3.201-12.768,10.742-12.768,19.108V206.07l-82.352-82.352c-8.076-8.077-21.172-8.077-29.248,0    c-8.077,8.076-8.077,21.171,0,29.248L226.751,256L123.717,359.035c-8.077,8.077-8.077,21.172,0,29.249    c8.076,8.077,21.172,8.077,29.248,0l82.352-82.353v185.386c0,8.365,5.039,15.907,12.768,19.108c2.558,1.06,5.246,1.576,7.91,1.576    c5.382,0,10.672-2.102,14.629-6.058l117.659-117.659c8.076-8.077,8.076-21.172,0-29.249L285.248,256z M276.682,70.614    l67.728,67.727l-67.728,67.727V70.614z M276.682,441.386V305.931l67.728,67.727L276.682,441.386z"/>
	</g>
</g>
<g>
</g>
<g>
</g>
<g>
</g>
<g>
</g>
<g>
</g>
<g>
</g>
<g>
</g>
<g>
</g>
<g>
</g>
<g>
</g>
<g>
</g>
<g>
</g>
<g>
</g>
<g>
</g>
<g>
</g>
</svg>
