<?xml version="1.0" encoding="iso-8859-1"?>
<!-- Generator: Adobe Illustrator 19.0.0, SVG Export Plug-In . SVG Version: 6.00 Build 0)  -->
<svg xmlns="http://www.w3.org/2000/svg" xmlns:xlink="http://www.w3.org/1999/xlink" version="1.1" id="Layer_1" x="0px" y="0px" viewBox="0 0 512 512" style="enable-background:new 0 0 512 512;" xml:space="preserve">
<g>
	<g>
		<path d="M362.962,106.963H63.467C28.472,106.963,0,135.434,0,170.43v171.14c0,34.996,28.472,63.467,63.467,63.467h299.495    c34.997,0,63.468-28.471,63.468-63.467V170.43C426.43,135.435,397.958,106.963,362.962,106.963z M385.065,341.57    c0,12.188-9.916,22.103-22.103,22.103H63.467c-12.187,0-22.102-9.916-22.102-22.103V170.43c0-12.188,9.916-22.102,22.102-22.102    h299.495c12.188,0,22.103,9.915,22.103,22.102V341.57z"/>
	</g>
</g>
<g>
	<g>
		<path d="M491.318,213.925c-11.423,0-20.682,9.26-20.682,20.682v42.785c0,11.423,9.259,20.682,20.682,20.682    c11.423,0,20.682-9.259,20.682-20.682v-42.785C512,223.185,502.741,213.925,491.318,213.925z"/>
	</g>
</g>
<g>
</g>
<g>
</g>
<g>
</g>
<g>
</g>
<g>
</g>
<g>
</g>
<g>
</g>
<g>
</g>
<g>
</g>
<g>
</g>
<g>
</g>
<g>
</g>
<g>
</g>
<g>
</g>
<g>
</g>
</svg>
