<?xml version="1.0" encoding="iso-8859-1"?>
<!-- Generator: Adobe Illustrator 19.0.0, SVG Export Plug-In . SVG Version: 6.00 Build 0)  -->
<svg xmlns="http://www.w3.org/2000/svg" xmlns:xlink="http://www.w3.org/1999/xlink" version="1.1" id="Layer_1" x="0px" y="0px" viewBox="0 0 512 512" style="enable-background:new 0 0 512 512;" xml:space="preserve">
<g>
	<g>
		<path d="M256,0C162.025,0,85.57,76.454,85.57,170.43S162.025,340.86,256,340.86s170.43-76.453,170.43-170.43    C426.43,76.454,349.975,0,256,0z M256,299.495c-71.167,0-129.065-57.898-129.065-129.065S184.833,41.364,256,41.364    S385.065,99.263,385.065,170.43S327.167,299.495,256,299.495z"/>
	</g>
</g>
<g>
	<g>
		<path d="M383.465,488.598l-25.884-195.1c-1.503-11.324-11.895-19.283-23.223-17.783c-11.324,1.503-19.285,11.9-17.783,23.223    l20.242,152.573l-70.177-42.107c-6.55-3.929-14.731-3.927-21.282,0l-70.17,42.103l20.235-152.352    c1.504-11.324-6.457-21.722-17.779-23.226c-11.323-1.506-21.722,6.457-23.226,17.778l-25.885,194.886    c-1.045,7.874,2.509,15.649,9.147,20.01c6.638,4.36,15.187,4.534,21.997,0.449L256,451.26l96.321,57.794    c3.28,1.968,6.961,2.947,10.64,2.947c3.96,0,7.914-1.135,11.355-3.395C380.955,504.245,384.509,496.47,383.465,488.598z"/>
	</g>
</g>
<g>
</g>
<g>
</g>
<g>
</g>
<g>
</g>
<g>
</g>
<g>
</g>
<g>
</g>
<g>
</g>
<g>
</g>
<g>
</g>
<g>
</g>
<g>
</g>
<g>
</g>
<g>
</g>
<g>
</g>
</svg>
