<?xml version="1.0" encoding="iso-8859-1"?>
<!-- Generator: Adobe Illustrator 19.0.0, SVG Export Plug-In . SVG Version: 6.00 Build 0)  -->
<svg xmlns="http://www.w3.org/2000/svg" xmlns:xlink="http://www.w3.org/1999/xlink" version="1.1" id="Layer_1" x="0px" y="0px" viewBox="0 0 512 512" style="enable-background:new 0 0 512 512;" xml:space="preserve">
<g>
	<g>
		<path d="M256,0c-11.422,0-20.682,9.26-20.682,20.682v470.636c0,11.423,9.26,20.682,20.682,20.682    c11.423,0,20.682-9.259,20.682-20.682V20.682C276.683,9.26,267.423,0,256,0z"/>
	</g>
</g>
<g>
	<g>
		<path d="M447.113,182.546L270.625,6.058c-8.077-8.076-21.171-8.076-29.249,0L64.887,182.546c-8.077,8.077-8.077,21.172,0,29.249    c8.077,8.076,21.172,8.076,29.249,0L256,49.932l161.864,161.864c4.038,4.038,9.332,6.058,14.625,6.058s10.587-2.02,14.625-6.058    C455.189,203.718,455.189,190.623,447.113,182.546z"/>
	</g>
</g>
<g>
</g>
<g>
</g>
<g>
</g>
<g>
</g>
<g>
</g>
<g>
</g>
<g>
</g>
<g>
</g>
<g>
</g>
<g>
</g>
<g>
</g>
<g>
</g>
<g>
</g>
<g>
</g>
<g>
</g>
</svg>
