<?xml version="1.0" encoding="iso-8859-1"?>
<!-- Generator: Adobe Illustrator 19.0.0, SVG Export Plug-In . SVG Version: 6.00 Build 0)  -->
<svg xmlns="http://www.w3.org/2000/svg" xmlns:xlink="http://www.w3.org/1999/xlink" version="1.1" id="Layer_1" x="0px" y="0px" viewBox="0 0 512 512" style="enable-background:new 0 0 512 512;" xml:space="preserve">
<g>
	<g>
		<path d="M256,0c-11.422,0-20.682,9.26-20.682,20.682v470.636c0,11.423,9.26,20.682,20.682,20.682    c11.423,0,20.682-9.259,20.682-20.682V20.682C276.683,9.26,267.423,0,256,0z"/>
	</g>
</g>
<g>
	<g>
		<path d="M447.113,300.205c-8.077-8.077-21.172-8.077-29.249,0L256,462.069L94.137,300.205c-8.077-8.077-21.172-8.077-29.249,0    c-8.077,8.077-8.077,21.172,0,29.249l176.488,176.488C245.414,509.981,250.708,512,256,512s10.587-2.019,14.625-6.058    l176.488-176.488C455.189,321.377,455.189,308.282,447.113,300.205z"/>
	</g>
</g>
<g>
</g>
<g>
</g>
<g>
</g>
<g>
</g>
<g>
</g>
<g>
</g>
<g>
</g>
<g>
</g>
<g>
</g>
<g>
</g>
<g>
</g>
<g>
</g>
<g>
</g>
<g>
</g>
<g>
</g>
</svg>
