<?xml version="1.0" encoding="iso-8859-1"?>
<!-- Generator: Adobe Illustrator 19.0.0, SVG Export Plug-In . SVG Version: 6.00 Build 0)  -->
<svg xmlns="http://www.w3.org/2000/svg" xmlns:xlink="http://www.w3.org/1999/xlink" version="1.1" id="Layer_1" x="0px" y="0px" viewBox="0 0 512 512" style="enable-background:new 0 0 512 512;" xml:space="preserve">
<g>
	<g>
		<path d="M437.019,74.981C388.667,26.629,324.38,0,256,0S123.333,26.63,74.981,74.981S0,187.62,0,256    s26.629,132.667,74.981,181.019C123.332,485.371,187.62,512,256,512s132.667-26.629,181.019-74.981    C485.371,388.667,512,324.38,512,256S485.371,123.332,437.019,74.981z M256,470.636C137.65,470.636,41.364,374.35,41.364,256    S137.65,41.364,256,41.364S470.636,137.65,470.636,256S374.35,470.636,256,470.636z"/>
	</g>
</g>
<g>
	<g>
		<path d="M463.34,385.437L328.267,151.531c-5.713-9.893-18.362-13.28-28.253-7.568c-9.891,5.712-13.28,18.361-7.567,28.253    l135.073,233.906c3.831,6.635,10.782,10.343,17.929,10.343c3.51,0,7.066-0.893,10.323-2.775    C465.664,407.978,469.052,395.329,463.34,385.437z"/>
	</g>
</g>
<g>
	<g>
		<path d="M471.786,141.191H201.642c-11.422,0-20.682,9.26-20.682,20.682c0,11.422,9.26,20.682,20.682,20.682h270.145    c11.423,0,20.682-9.26,20.682-20.682C492.469,150.451,483.209,141.191,471.786,141.191z"/>
	</g>
</g>
<g>
	<g>
		<path d="M292.699,4.184c-9.893-5.714-22.542-2.324-28.253,7.568L129.373,245.657c-5.712,9.892-2.324,22.541,7.568,28.253    c3.257,1.882,6.813,2.776,10.323,2.776c7.147,0,14.099-3.709,17.929-10.343L300.265,32.437    C305.978,22.545,302.59,9.896,292.699,4.184z"/>
	</g>
</g>
<g>
	<g>
		<path d="M219.551,339.785L84.479,105.879c-5.712-9.892-18.359-13.28-28.253-7.568c-9.892,5.712-13.28,18.361-7.568,28.253    L183.731,360.47c3.831,6.635,10.782,10.343,17.93,10.343c3.509,0,7.066-0.893,10.323-2.775    C221.875,362.326,225.263,349.678,219.551,339.785z"/>
	</g>
</g>
<g>
	<g>
		<path d="M310.358,329.445H40.214c-11.422,0-20.682,9.259-20.682,20.682c0,11.423,9.26,20.682,20.682,20.682h270.145    c11.423,0,20.682-9.259,20.682-20.682C331.041,338.704,321.781,329.445,310.358,329.445z"/>
	</g>
</g>
<g>
	<g>
		<path d="M375.06,238.09c-9.891-5.713-22.541-2.325-28.253,7.568L211.735,479.563c-5.713,9.892-2.325,22.541,7.567,28.253    c3.258,1.882,6.814,2.776,10.324,2.776c7.147,0,14.099-3.709,17.93-10.343l135.071-233.906    C388.34,256.451,384.951,243.802,375.06,238.09z"/>
	</g>
</g>
<g>
</g>
<g>
</g>
<g>
</g>
<g>
</g>
<g>
</g>
<g>
</g>
<g>
</g>
<g>
</g>
<g>
</g>
<g>
</g>
<g>
</g>
<g>
</g>
<g>
</g>
<g>
</g>
<g>
</g>
</svg>
