<?xml version="1.0" encoding="iso-8859-1"?>
<!-- Generator: Adobe Illustrator 19.0.0, SVG Export Plug-In . SVG Version: 6.00 Build 0)  -->
<svg xmlns="http://www.w3.org/2000/svg" xmlns:xlink="http://www.w3.org/1999/xlink" version="1.1" id="Layer_1" x="0px" y="0px" viewBox="0 0 512 512" style="enable-background:new 0 0 512 512;" xml:space="preserve">
<g>
	<g>
		<path d="M256,0c-50.33,0-91.278,40.947-91.278,91.278c0,50.33,40.947,91.278,91.278,91.278s91.278-40.947,91.278-91.278    C347.278,40.947,306.33,0,256,0z M256,141.191c-27.522,0-49.913-22.391-49.913-49.913c0-27.522,22.391-49.913,49.913-49.913    c27.522,0,49.913,22.391,49.913,49.913C305.913,118.8,283.522,141.191,256,141.191z"/>
	</g>
</g>
<g>
	<g>
		<path d="M256,141.191c-11.422,0-20.682,9.26-20.682,20.682v329.445c0,11.423,9.26,20.682,20.682,20.682    c11.423,0,20.682-9.259,20.682-20.682V161.873C276.682,150.451,267.423,141.191,256,141.191z"/>
	</g>
</g>
<g>
	<g>
		<path d="M491.318,235.318h-70.595c-11.423,0-20.682,9.26-20.682,20.682c0,11.423,9.259,20.682,20.682,20.682h48.925    C459.205,385.363,367.372,470.636,256,470.636S52.795,385.363,42.353,276.682h48.925c11.422,0,20.682-9.259,20.682-20.682    c0-11.422-9.26-20.682-20.682-20.682H20.682C9.26,235.318,0,244.578,0,256c0,68.38,26.629,132.667,74.981,181.019    C123.332,485.371,187.62,512,256,512s132.667-26.629,181.019-74.981C485.371,388.667,512,324.38,512,256    C512,244.578,502.741,235.318,491.318,235.318z"/>
	</g>
</g>
<g>
</g>
<g>
</g>
<g>
</g>
<g>
</g>
<g>
</g>
<g>
</g>
<g>
</g>
<g>
</g>
<g>
</g>
<g>
</g>
<g>
</g>
<g>
</g>
<g>
</g>
<g>
</g>
<g>
</g>
</svg>
