<?xml version="1.0" encoding="iso-8859-1"?>
<!-- Generator: Adobe Illustrator 19.0.0, SVG Export Plug-In . SVG Version: 6.00 Build 0)  -->
<svg xmlns="http://www.w3.org/2000/svg" xmlns:xlink="http://www.w3.org/1999/xlink" version="1.1" id="Layer_1" x="0px" y="0px" viewBox="0 0 512 512" style="enable-background:new 0 0 512 512;" xml:space="preserve">
<g>
	<g>
		<path d="M491.318,183.025h-366.05c-11.422,0-20.682,9.26-20.682,20.682c0,11.422,9.26,20.682,20.682,20.682h366.05    c11.423,0,20.682-9.26,20.682-20.682C512,192.285,502.741,183.025,491.318,183.025z"/>
	</g>
</g>
<g>
	<g>
		<path d="M491.318,78.439H20.682C9.26,78.439,0,87.699,0,99.121c0,11.422,9.26,20.682,20.682,20.682h470.636    c11.423,0,20.682-9.26,20.682-20.682C512,87.699,502.741,78.439,491.318,78.439z"/>
	</g>
</g>
<g>
	<g>
		<path d="M491.318,287.61H20.682C9.26,287.61,0,296.869,0,308.292c0,11.423,9.26,20.682,20.682,20.682h470.636    c11.423,0,20.682-9.259,20.682-20.682C512,296.869,502.741,287.61,491.318,287.61z"/>
	</g>
</g>
<g>
	<g>
		<path d="M491.318,392.197h-366.05c-11.422,0-20.682,9.259-20.682,20.682s9.26,20.682,20.682,20.682h366.05    c11.423,0,20.682-9.259,20.682-20.682S502.741,392.197,491.318,392.197z"/>
	</g>
</g>
<g>
</g>
<g>
</g>
<g>
</g>
<g>
</g>
<g>
</g>
<g>
</g>
<g>
</g>
<g>
</g>
<g>
</g>
<g>
</g>
<g>
</g>
<g>
</g>
<g>
</g>
<g>
</g>
<g>
</g>
</svg>
