<?xml version="1.0" encoding="iso-8859-1"?>
<!-- Generator: Adobe Illustrator 19.0.0, SVG Export Plug-In . SVG Version: 6.00 Build 0)  -->
<svg xmlns="http://www.w3.org/2000/svg" xmlns:xlink="http://www.w3.org/1999/xlink" version="1.1" id="Layer_1" x="0px" y="0px" viewBox="0 0 512 512" style="enable-background:new 0 0 512 512;" xml:space="preserve">
<g>
	<g>
		<path d="M444.254,23.532H67.746C30.391,23.532,0,53.923,0,91.277v235.318c0,37.355,30.391,67.746,67.746,67.746h23.532    c11.422,0,20.682-9.259,20.682-20.682c0-11.423-9.26-20.682-20.682-20.682H67.746c-14.547,0-26.381-11.835-26.381-26.381V91.278    c0-14.547,11.835-26.381,26.381-26.381h376.508c14.547,0,26.381,11.835,26.381,26.381v235.318    c0,14.547-11.835,26.381-26.381,26.381h-23.532c-11.423,0-20.682,9.259-20.682,20.682c0,11.423,9.259,20.682,20.682,20.682h23.532    c37.355,0,67.746-30.391,67.746-67.746V91.277C512,53.923,481.61,23.532,444.254,23.532z"/>
	</g>
</g>
<g>
	<g>
		<path d="M389.547,454.546L271.889,313.354c-3.93-4.716-9.75-7.442-15.889-7.442s-11.959,2.726-15.889,7.442L122.453,454.546    c-5.137,6.165-6.245,14.746-2.841,22.013c3.404,7.266,10.705,11.909,18.73,11.909h235.318c8.025,0,15.326-4.643,18.73-11.909    C395.793,469.292,394.685,460.711,389.547,454.546z M182.498,447.104L256,358.902l73.502,88.202H182.498z"/>
	</g>
</g>
<g>
</g>
<g>
</g>
<g>
</g>
<g>
</g>
<g>
</g>
<g>
</g>
<g>
</g>
<g>
</g>
<g>
</g>
<g>
</g>
<g>
</g>
<g>
</g>
<g>
</g>
<g>
</g>
<g>
</g>
</svg>
