<?xml version="1.0" encoding="iso-8859-1"?>
<!-- Generator: Adobe Illustrator 19.0.0, SVG Export Plug-In . SVG Version: 6.00 Build 0)  -->
<svg xmlns="http://www.w3.org/2000/svg" xmlns:xlink="http://www.w3.org/1999/xlink" version="1.1" id="Layer_1" x="0px" y="0px" viewBox="0 0 512 512" style="enable-background:new 0 0 512 512;" xml:space="preserve">
<g>
	<g>
		<path d="M491.318,235.318h-94.127c-8.903,0-16.807,5.696-19.621,14.142l-50.974,152.923L205.025,37.674    c-2.815-8.446-10.719-14.142-19.621-14.142s-16.806,5.696-19.621,14.142L99.903,235.318h-79.22C9.26,235.318,0,244.577,0,256    s9.26,20.682,20.682,20.682h94.127c8.902,0,16.806-5.697,19.621-14.142l50.975-152.923l121.569,364.709    c2.816,8.446,10.719,14.142,19.621,14.142c8.902,0,16.806-5.696,19.621-14.141l65.881-197.645h79.221    c11.423,0,20.682-9.259,20.682-20.682C512,244.578,502.741,235.318,491.318,235.318z"/>
	</g>
</g>
<g>
</g>
<g>
</g>
<g>
</g>
<g>
</g>
<g>
</g>
<g>
</g>
<g>
</g>
<g>
</g>
<g>
</g>
<g>
</g>
<g>
</g>
<g>
</g>
<g>
</g>
<g>
</g>
<g>
</g>
</svg>
